<?xml version="1.0" encoding="UTF-8"?>
<svg xmlns="http://www.w3.org/2000/svg" xmlns:xlink="http://www.w3.org/1999/xlink" width="65px" height="65px" viewBox="0 0 65 65" version="1.1">
<g id="surface1">
<path style=" stroke:none;fill-rule:evenodd;fill:rgb(0%,0%,0%);fill-opacity:1;" d="M 36.828125 41.671875 C 36.078125 40.707031 35.402344 39.660156 34.808594 38.546875 L 34.683594 38.324219 L 34.523438 38.5625 L 34.234375 38.886719 C 30.835938 41.78125 26.222656 41.402344 23.179688 37.980469 C 23.027344 37.828125 22.882812 37.65625 22.753906 37.472656 C 22.550781 38.109375 22.316406 38.875 22.054688 39.574219 C 21.808594 40.289062 21.511719 40.976562 21.167969 41.628906 C 24.339844 49.417969 33.773438 49.683594 36.824219 41.671875 Z M 50.734375 48.53125 C 53.875 50.351562 54.277344 49.761719 54.964844 48.742188 C 55.703125 47.503906 56.722656 46.550781 57.902344 46 C 58.707031 45.632812 59.539062 45.382812 60.390625 45.253906 C 60.921875 45.171875 61.414062 45.121094 61.925781 45.09375 C 60.882812 42.394531 59.0625 40.246094 56.796875 39.058594 C 56.488281 38.953125 56.269531 38.613281 56.269531 38.222656 L 56.269531 29.957031 C 56.269531 29.476562 56.589844 29.089844 56.988281 29.089844 L 57.914062 29.089844 C 58 29.089844 58.085938 29.054688 58.15625 28.988281 C 58.15625 28.988281 58.15625 28.988281 58.15625 28.957031 C 58.226562 28.871094 58.265625 28.757812 58.265625 28.636719 L 58.265625 25.726562 C 58.265625 25.601562 58.226562 25.484375 58.15625 25.398438 C 58.085938 25.3125 57.988281 25.265625 57.886719 25.265625 L 48.652344 25.265625 C 48.550781 25.265625 48.453125 25.3125 48.382812 25.398438 C 48.3125 25.484375 48.273438 25.601562 48.273438 25.726562 L 48.273438 28.636719 C 48.273438 28.757812 48.3125 28.875 48.382812 28.960938 C 48.453125 29.046875 48.550781 29.097656 48.652344 29.097656 L 49.371094 29.097656 C 49.761719 29.105469 50.070312 29.488281 50.074219 29.957031 L 50.074219 38.101562 C 50.074219 38.464844 49.886719 38.792969 49.605469 38.917969 C 47.773438 39.75 46.203125 41.253906 45.121094 43.222656 C 44.191406 44.820312 43.609375 46.675781 43.429688 48.621094 C 45.453125 48.070312 48.925781 47.476562 50.742188 48.53125 Z M 61.648438 49.027344 C 61.160156 48.441406 60.375 48.441406 59.882812 49.027344 C 59.421875 49.621094 59.433594 50.550781 59.914062 51.128906 C 60.390625 51.707031 61.164062 51.71875 61.65625 51.164062 C 61.890625 50.878906 62.023438 50.492188 62.019531 50.089844 C 62.015625 49.691406 61.882812 49.308594 61.648438 49.027344 Z M 46.746094 52.636719 C 47.558594 52.636719 48.214844 53.4375 48.214844 54.417969 C 48.210938 55.398438 47.550781 56.191406 46.738281 56.191406 C 45.925781 56.191406 45.265625 55.394531 45.265625 54.414062 C 45.261719 53.941406 45.417969 53.484375 45.695312 53.152344 C 45.976562 52.816406 46.351562 52.632812 46.746094 52.636719 Z M 52.558594 56.9375 C 53.496094 56.9375 54.304688 57.734375 54.488281 58.84375 C 54.671875 59.953125 54.179688 61.066406 53.3125 61.5 C 52.445312 61.933594 51.445312 61.566406 50.925781 60.625 C 50.402344 59.683594 50.503906 58.433594 51.167969 57.632812 C 51.539062 57.1875 52.039062 56.9375 52.558594 56.9375 Z M 58.460938 54.554688 C 58.871094 54.550781 59.265625 54.746094 59.558594 55.09375 C 60.15625 55.828125 60.15625 57.003906 59.558594 57.734375 C 59.0625 58.332031 58.292969 58.453125 57.6875 58.03125 C 57.078125 57.609375 56.785156 56.746094 56.964844 55.929688 C 57.148438 55.113281 57.761719 54.546875 58.460938 54.546875 Z M 48.550781 23.238281 L 58.066406 23.238281 C 58.578125 23.238281 59.066406 23.484375 59.425781 23.921875 C 59.78125 24.359375 59.984375 24.949219 59.984375 25.566406 L 59.984375 29.082031 C 59.984375 29.703125 59.78125 30.296875 59.417969 30.734375 L 59.367188 30.792969 C 59.011719 31.195312 58.542969 31.425781 58.054688 31.429688 L 57.832031 31.429688 L 57.832031 37.605469 C 62.988281 40.332031 65.84375 47.054688 64.660156 53.691406 C 63.480469 60.328125 58.589844 65.046875 52.960938 64.980469 C 47.332031 64.917969 42.515625 60.085938 41.441406 53.421875 C 40.367188 46.757812 43.328125 40.101562 48.527344 37.496094 L 48.527344 31.421875 C 48.011719 31.421875 47.523438 31.171875 47.164062 30.734375 C 46.800781 30.296875 46.597656 29.703125 46.597656 29.082031 L 46.597656 25.570312 C 46.597656 24.953125 46.800781 24.363281 47.164062 23.925781 C 47.523438 23.492188 48.015625 23.25 48.527344 23.246094 Z M 27.246094 19.996094 C 27.945312 20.3125 28.09375 21.015625 27.699219 21.269531 C 27.308594 21.523438 26.644531 21.121094 26.214844 20.949219 C 25.046875 20.5 23.65625 20.445312 22.652344 21.207031 C 22.359375 21.433594 22.085938 21.695312 21.832031 21.988281 C 21.933594 21.550781 22.101562 21.140625 22.332031 20.777344 C 23.34375 19.242188 25.894531 19.152344 27.246094 19.988281 Z M 23.609375 23.015625 C 23.535156 23.046875 23.449219 23.039062 23.382812 22.992188 C 23.3125 22.941406 23.261719 22.863281 23.246094 22.765625 C 23.1875 22.570312 23.265625 22.351562 23.425781 22.269531 C 24.542969 21.742188 25.785156 21.742188 26.902344 22.269531 C 27.058594 22.351562 27.140625 22.5625 27.09375 22.761719 C 27.074219 22.855469 27.027344 22.933594 26.960938 22.980469 C 26.890625 23.03125 26.808594 23.042969 26.734375 23.015625 C 26.542969 22.933594 26.347656 22.863281 26.164062 22.804688 C 26.171875 22.890625 26.171875 22.980469 26.164062 23.066406 C 26.085938 23.523438 25.753906 23.851562 25.371094 23.851562 C 24.984375 23.851562 24.652344 23.523438 24.578125 23.066406 C 24.574219 22.9375 24.597656 22.8125 24.640625 22.695312 C 24.277344 22.746094 23.921875 22.851562 23.582031 23.015625 Z M 31.082031 19.996094 C 30.378906 20.3125 30.238281 21.015625 30.628906 21.269531 C 31.019531 21.523438 31.6875 21.121094 32.109375 20.949219 C 33.273438 20.421875 34.566406 20.515625 35.671875 21.207031 C 35.96875 21.4375 36.242188 21.699219 36.496094 21.996094 C 36.386719 21.554688 36.207031 21.144531 35.96875 20.785156 C 34.957031 19.25 32.410156 19.160156 31.058594 19.996094 Z M 32.390625 22.722656 C 32.355469 22.832031 32.335938 22.949219 32.335938 23.066406 C 32.371094 23.574219 32.722656 23.964844 33.140625 23.964844 C 33.5625 23.964844 33.914062 23.574219 33.949219 23.066406 C 33.949219 22.917969 33.917969 22.773438 33.863281 22.640625 C 34.21875 22.695312 34.570312 22.800781 34.910156 22.945312 C 34.988281 22.96875 35.070312 22.953125 35.136719 22.902344 C 35.203125 22.851562 35.25 22.765625 35.265625 22.671875 C 35.316406 22.472656 35.230469 22.261719 35.070312 22.1875 C 34.507812 21.953125 33.917969 21.828125 33.324219 21.816406 C 32.738281 21.820312 32.160156 21.933594 31.605469 22.160156 C 31.445312 22.242188 31.359375 22.453125 31.40625 22.652344 C 31.421875 22.746094 31.46875 22.828125 31.535156 22.878906 C 31.601562 22.929688 31.683594 22.945312 31.761719 22.921875 C 31.960938 22.839844 32.164062 22.773438 32.367188 22.722656 Z M 15.066406 10.777344 C 21.621094 1.011719 29.175781 -4.300781 34.851562 4.402344 C 41.371094 4.820312 44.164062 16.75 39.683594 22.632812 C 39.988281 22.625 40.292969 22.710938 40.566406 22.882812 C 40.925781 23.121094 41.191406 23.523438 41.300781 23.996094 C 41.4375 24.65625 41.417969 25.347656 41.246094 25.992188 L 41.246094 26.070312 C 41.167969 26.363281 41.09375 26.707031 41.027344 27.109375 C 40.722656 28.683594 40.390625 30.410156 38.910156 30.292969 L 38.679688 30.261719 C 38.625 33.449219 37.382812 34.914062 35.734375 36.78125 L 35.734375 36.867188 L 35.492188 37.214844 L 35.804688 37.765625 C 36.265625 38.625 36.777344 39.445312 37.332031 40.226562 C 37.847656 40.746094 38.421875 41.175781 39.039062 41.5 C 35.980469 47.65625 36.25 55.414062 39.71875 61.246094 L 3.195312 61.246094 C 1.203125 61.0625 0.195312 59.824219 0.0234375 57.671875 C 0.507812 53.425781 0.621094 52.570312 2.761719 49.15625 C 3.507812 48 4.445312 47.046875 5.511719 46.351562 C 8.683594 44.203125 17.140625 43.519531 20.390625 40.523438 C 20.617188 40.039062 20.824219 39.535156 21.003906 39.019531 C 21.375 38 21.71875 36.890625 21.9375 36.101562 C 20.484375 34.65625 19.59375 32.546875 19.480469 30.277344 L 19.332031 30.277344 C 18.984375 30.269531 18.640625 30.160156 18.335938 29.957031 C 17.652344 29.402344 17.195312 28.523438 17.085938 27.542969 C 16.902344 26.277344 16.886719 24.984375 17.046875 23.71875 C 17.050781 23.652344 17.066406 23.585938 17.085938 23.527344 C 17.199219 22.902344 17.53125 22.367188 17.996094 22.058594 C 17.828125 18.164062 18.371094 11.988281 15.050781 10.777344 Z M 21.898438 33.722656 L 21.898438 33.308594 C 21.570312 31.953125 21.390625 30.546875 21.367188 29.132812 C 21.363281 29.074219 21.363281 29.011719 21.367188 28.949219 L 19.527344 23.804688 C 18.917969 23.550781 18.53125 23.460938 18.34375 23.992188 C 18.222656 25.0625 18.234375 26.148438 18.382812 27.214844 C 18.429688 27.757812 18.652344 28.253906 19.007812 28.59375 C 19.117188 28.664062 19.242188 28.703125 19.371094 28.707031 C 19.550781 28.699219 19.726562 28.660156 19.898438 28.59375 C 19.960938 28.582031 20.023438 28.582031 20.085938 28.59375 C 20.425781 28.589844 20.710938 28.90625 20.734375 29.320312 C 20.703125 30.90625 21.113281 32.457031 21.898438 33.730469 Z M 20.730469 24.132812 L 22.226562 28.285156 C 24.414062 27.226562 26.738281 26.625 29.097656 26.507812 C 31.464844 26.421875 33.820312 27.011719 35.96875 28.222656 L 37.519531 24.082031 L 37.519531 24.023438 C 38.132812 19.714844 37.855469 16.902344 37.09375 14.984375 C 36.46875 13.484375 35.453125 12.273438 34.207031 11.53125 L 34.023438 11.703125 C 32.796875 13.207031 31.144531 14.101562 29.398438 14.199219 C 28.941406 14.304688 28.492188 14.367188 28.042969 14.4375 C 26.269531 14.566406 24.5625 15.285156 23.109375 16.515625 C 22.253906 17.183594 21.597656 18.167969 21.242188 19.320312 C 20.910156 20.574219 20.878906 21.917969 21.152344 23.195312 C 21.195312 23.351562 21.195312 23.519531 21.152344 23.679688 C 21.089844 23.886719 20.960938 24.050781 20.792969 24.132812 Z M 38.273438 24.914062 L 36.796875 28.855469 C 36.796875 28.871094 36.796875 28.886719 36.796875 28.90625 C 36.820312 28.972656 36.832031 29.046875 36.835938 29.121094 C 36.855469 30.707031 36.652344 32.28125 36.230469 33.78125 L 36.230469 33.902344 C 37.136719 32.578125 37.539062 30.855469 37.339844 29.152344 C 37.328125 28.976562 37.367188 28.804688 37.449219 28.65625 C 37.542969 28.484375 37.691406 28.363281 37.859375 28.324219 C 38.027344 28.28125 38.203125 28.324219 38.347656 28.441406 C 38.445312 28.523438 38.554688 28.589844 38.667969 28.644531 C 38.757812 28.6875 38.851562 28.710938 38.949219 28.714844 C 39.34375 28.714844 39.546875 27.6875 39.730469 26.726562 C 39.800781 26.320312 39.886719 25.925781 39.996094 25.535156 C 40.09375 25.175781 40.117188 24.792969 40.058594 24.425781 C 40.042969 24.339844 40.003906 24.269531 39.941406 24.226562 C 39.835938 24.171875 39.722656 24.152344 39.609375 24.175781 C 39.207031 24.253906 38.824219 24.457031 38.507812 24.769531 C 38.4375 24.832031 38.359375 24.878906 38.273438 24.902344 Z M 38.273438 24.914062 "/>
</g>
</svg>
