<?xml version="1.0" encoding="UTF-8"?>
<svg xmlns="http://www.w3.org/2000/svg" xmlns:xlink="http://www.w3.org/1999/xlink" width="65px" height="65px" viewBox="0 0 65 65" version="1.1">
<defs>
<clipPath id="clip1">
  <path d="M 8 0.0117188 L 47 0.0117188 L 47 41 L 8 41 Z M 8 0.0117188 "/>
</clipPath>
<clipPath id="clip2">
  <path d="M 19 0.0117188 L 57 0.0117188 L 57 40 L 19 40 Z M 19 0.0117188 "/>
</clipPath>
</defs>
<g id="surface1">
<path style=" stroke:none;fill-rule:evenodd;fill:rgb(50.980392%,95.294118%,80%);fill-opacity:1;" d="M 32.789062 16.695312 C 32.40625 10.28125 37.371094 4.769531 43.882812 4.386719 C 47.007812 4.203125 50.078125 5.25 52.421875 7.296875 C 54.761719 9.347656 56.179688 12.226562 56.363281 15.308594 C 56.75 21.726562 51.78125 27.234375 45.273438 27.621094 C 38.761719 28.003906 33.171875 23.113281 32.789062 16.695312 Z M 32.789062 16.695312 "/>
<path style=" stroke:none;fill-rule:evenodd;fill:rgb(50.980392%,95.294118%,80%);fill-opacity:1;" d="M 8.695312 16.976562 C 8.203125 8.777344 15.207031 1.695312 24.335938 1.15625 C 33.46875 0.617188 41.265625 6.828125 41.757812 15.027344 C 42.25 23.226562 35.246094 30.3125 26.113281 30.847656 C 16.984375 31.386719 9.1875 25.175781 8.695312 16.976562 Z M 8.695312 16.976562 "/>
<path style=" stroke:none;fill-rule:evenodd;fill:rgb(50.980392%,95.294118%,80%);fill-opacity:1;" d="M 1.917969 33.46875 C 1.535156 27.054688 6.5 21.542969 13.011719 21.160156 C 16.136719 20.972656 19.207031 22.019531 21.550781 24.070312 C 23.890625 26.117188 25.308594 29 25.492188 32.082031 C 25.878906 38.496094 20.910156 44.007812 14.402344 44.390625 C 7.890625 44.773438 2.304688 39.882812 1.917969 33.46875 Z M 1.917969 33.46875 "/>
<path style=" stroke:none;fill-rule:evenodd;fill:rgb(50.980392%,95.294118%,80%);fill-opacity:1;" d="M 30.726562 47.921875 C 30.296875 40.734375 36.148438 34.539062 43.796875 34.089844 C 47.472656 33.875 51.074219 35.035156 53.820312 37.324219 C 56.5625 39.613281 58.21875 42.839844 58.425781 46.289062 C 58.855469 53.480469 53.003906 59.671875 45.355469 60.121094 C 37.707031 60.574219 31.160156 55.109375 30.726562 47.921875 Z M 30.726562 47.921875 "/>
<path style=" stroke:none;fill-rule:evenodd;fill:rgb(50.980392%,95.294118%,80%);fill-opacity:1;" d="M 39.996094 30.695312 C 39.613281 24.28125 44.578125 18.769531 51.089844 18.386719 C 54.214844 18.203125 57.285156 19.25 59.625 21.296875 C 61.96875 23.34375 63.386719 26.226562 63.570312 29.308594 C 63.953125 35.722656 58.988281 41.234375 52.476562 41.617188 C 45.96875 42 40.378906 37.113281 39.996094 30.695312 Z M 39.996094 30.695312 "/>
<path style=" stroke:none;fill-rule:evenodd;fill:rgb(50.980392%,95.294118%,80%);fill-opacity:1;" d="M 15.683594 50.683594 C 15.242188 43.324219 21.054688 36.996094 28.660156 36.546875 C 32.316406 36.332031 35.902344 37.53125 38.636719 39.875 C 41.371094 42.222656 43.023438 45.527344 43.234375 49.058594 C 43.675781 56.417969 37.863281 62.746094 30.257812 63.195312 C 22.648438 63.640625 16.121094 58.039062 15.683594 50.683594 Z M 15.683594 50.683594 "/>
<path style=" stroke:none;fill-rule:evenodd;fill:rgb(50.980392%,95.294118%,80%);fill-opacity:1;" d="M 21.660156 32.820312 C 21.167969 24.621094 28.171875 17.539062 37.300781 17 C 46.433594 16.464844 54.230469 22.675781 54.722656 30.875 C 55.214844 39.074219 48.210938 46.15625 39.078125 46.695312 C 29.949219 47.230469 22.152344 41.019531 21.660156 32.820312 Z M 21.660156 32.820312 "/>
<path style=" stroke:none;fill-rule:evenodd;fill:rgb(62.352941%,42.745098%,16.470588%);fill-opacity:1;" d="M 16.535156 28.808594 C 16.183594 28.574219 14.980469 28.375 14.253906 28.257812 C 13.53125 28.140625 12.566406 28.035156 12.1875 28.117188 C 11.808594 28.195312 11.699219 28.53125 11.980469 28.738281 C 12.261719 28.945312 13.152344 29.199219 13.878906 29.351562 C 14.609375 29.507812 15.910156 29.757812 16.355469 29.664062 C 16.796875 29.574219 16.882812 29.042969 16.535156 28.808594 Z M 16.535156 28.808594 "/>
<path style=" stroke:none;fill-rule:evenodd;fill:rgb(26.27451%,26.27451%,26.27451%);fill-opacity:1;" d="M 33.75 54.863281 C 33.230469 55.320312 33.464844 56.382812 34.277344 56.6875 C 35.09375 56.996094 37.667969 56.847656 38.640625 56.699219 C 39.613281 56.554688 39.953125 56.175781 40.113281 55.816406 C 40.269531 55.460938 40.054688 54.878906 39.597656 54.566406 C 39.144531 54.257812 38.355469 53.902344 37.378906 53.949219 C 36.402344 54 34.265625 54.40625 33.75 54.863281 Z M 33.75 54.863281 "/>
<path style=" stroke:none;fill-rule:evenodd;fill:rgb(100%,100%,100%);fill-opacity:1;" d="M 34.089844 54.421875 C 33.628906 54.714844 33.605469 55.378906 34.152344 55.566406 C 34.695312 55.753906 36.613281 55.636719 37.355469 55.539062 C 38.09375 55.441406 38.414062 55.199219 38.59375 54.972656 C 38.773438 54.75 38.71875 54.382812 38.441406 54.191406 C 38.164062 54 37.644531 53.78125 36.921875 53.820312 C 36.195312 53.859375 34.550781 54.132812 34.089844 54.421875 Z M 34.089844 54.421875 "/>
<path style=" stroke:none;fill-rule:evenodd;fill:rgb(26.27451%,26.27451%,26.27451%);fill-opacity:1;" d="M 30.386719 53.960938 C 30.976562 54.308594 30.949219 55.394531 30.214844 55.851562 C 29.476562 56.308594 26.945312 56.660156 25.972656 56.703125 C 25.003906 56.75 24.601562 56.441406 24.378906 56.121094 C 24.15625 55.804688 24.261719 55.191406 24.644531 54.796875 C 25.027344 54.40625 25.730469 53.90625 26.6875 53.765625 C 27.644531 53.628906 29.800781 53.613281 30.386719 53.960938 Z M 30.386719 53.960938 "/>
<path style=" stroke:none;fill-rule:evenodd;fill:rgb(100%,100%,100%);fill-opacity:1;" d="M 29.972656 53.597656 C 30.476562 53.792969 30.621094 54.441406 30.128906 54.726562 C 29.632812 55.015625 27.746094 55.273438 27.007812 55.320312 C 26.269531 55.363281 25.914062 55.1875 25.699219 55.003906 C 25.480469 54.816406 25.464844 54.449219 25.699219 54.207031 C 25.933594 53.964844 26.394531 53.652344 27.109375 53.550781 C 27.820312 53.449219 29.46875 53.398438 29.972656 53.597656 Z M 29.972656 53.597656 "/>
<path style=" stroke:none;fill-rule:evenodd;fill:rgb(62.352941%,42.745098%,16.470588%);fill-opacity:1;" d="M 48.082031 28.023438 C 48.179688 27.707031 48.910156 27.03125 49.355469 26.625 C 49.796875 26.21875 50.417969 25.714844 50.742188 25.59375 C 51.070312 25.472656 51.371094 25.644531 51.304688 25.910156 C 51.238281 26.171875 50.769531 26.742188 50.351562 27.175781 C 49.929688 27.605469 49.160156 28.363281 48.78125 28.503906 C 48.40625 28.644531 47.988281 28.335938 48.082031 28.023438 Z M 48.082031 28.023438 "/>
<path style=" stroke:none;fill-rule:evenodd;fill:rgb(62.352941%,42.745098%,16.470588%);fill-opacity:1;" d="M 48.757812 28.125 C 48.917969 27.816406 49.753906 27.269531 50.257812 26.945312 C 50.761719 26.621094 51.453125 26.230469 51.78125 26.179688 C 52.109375 26.128906 52.34375 26.378906 52.222656 26.640625 C 52.097656 26.90625 51.53125 27.398438 51.042969 27.753906 C 50.550781 28.113281 49.664062 28.734375 49.28125 28.792969 C 48.902344 28.855469 48.59375 28.433594 48.757812 28.125 Z M 48.757812 28.125 "/>
<path style=" stroke:none;fill-rule:evenodd;fill:rgb(62.352941%,42.745098%,16.470588%);fill-opacity:1;" d="M 48.984375 28.535156 C 49.207031 28.265625 50.101562 27.871094 50.636719 27.640625 C 51.175781 27.40625 51.902344 27.136719 52.214844 27.140625 C 52.527344 27.140625 52.683594 27.417969 52.507812 27.648438 C 52.332031 27.878906 51.695312 28.261719 51.164062 28.53125 C 50.628906 28.800781 49.671875 29.253906 49.308594 29.253906 C 48.945312 29.253906 48.761719 28.804688 48.984375 28.535156 Z M 48.984375 28.535156 "/>
<path style=" stroke:none;fill-rule:evenodd;fill:rgb(62.352941%,42.745098%,16.470588%);fill-opacity:1;" d="M 48.835938 28.621094 C 49.128906 28.421875 50.027344 28.332031 50.566406 28.285156 C 51.105469 28.238281 51.816406 28.222656 52.074219 28.335938 C 52.332031 28.449219 52.347656 28.789062 52.109375 28.96875 C 51.871094 29.144531 51.1875 29.3125 50.636719 29.398438 C 50.085938 29.484375 49.109375 29.609375 48.808594 29.480469 C 48.507812 29.351562 48.542969 28.820312 48.835938 28.621094 Z M 48.835938 28.621094 "/>
<path style=" stroke:none;fill-rule:evenodd;fill:rgb(62.352941%,42.745098%,16.470588%);fill-opacity:1;" d="M 48.699219 27.464844 L 49.554688 29.214844 L 46.871094 30.839844 L 46.019531 29.089844 Z M 48.699219 27.464844 "/>
<path style=" stroke:none;fill-rule:evenodd;fill:rgb(62.352941%,42.745098%,16.470588%);fill-opacity:1;" d="M 48.460938 28.910156 C 48.257812 28.71875 48.269531 27.890625 48.28125 27.390625 C 48.292969 26.894531 48.363281 26.21875 48.53125 25.917969 C 48.699219 25.621094 49.113281 25.453125 49.292969 25.605469 C 49.476562 25.753906 49.589844 26.335938 49.621094 26.828125 C 49.65625 27.320312 49.679688 28.207031 49.488281 28.554688 C 49.292969 28.902344 48.660156 29.105469 48.460938 28.910156 Z M 48.460938 28.910156 "/>
<path style=" stroke:none;fill-rule:evenodd;fill:rgb(62.352941%,42.745098%,16.470588%);fill-opacity:1;" d="M 30.847656 31.539062 L 35.304688 31.539062 L 35.304688 34.332031 L 30.847656 34.332031 Z M 30.847656 31.539062 "/>
<path style=" stroke:none;fill-rule:evenodd;fill:rgb(62.352941%,42.745098%,16.470588%);fill-opacity:1;" d="M 21.347656 21.664062 C 21.347656 16.015625 26.261719 11.433594 32.328125 11.433594 C 35.242188 11.433594 38.035156 12.511719 40.097656 14.429688 C 42.15625 16.347656 43.3125 18.953125 43.3125 21.664062 C 43.3125 27.316406 38.394531 31.898438 32.328125 31.898438 C 26.261719 31.898438 21.347656 27.316406 21.347656 21.664062 Z M 21.347656 21.664062 "/>
<path style=" stroke:none;fill-rule:evenodd;fill:rgb(0%,0%,0%);fill-opacity:1;" d="M 36.832031 46.078125 L 36.832031 55.226562 L 33.378906 55.222656 L 33.378906 46.074219 Z M 36.832031 46.078125 "/>
<path style=" stroke:none;fill-rule:evenodd;fill:rgb(0%,0%,0%);fill-opacity:1;" d="M 32.042969 45.75 L 31.109375 54.851562 L 27.777344 54.511719 L 28.710938 45.414062 Z M 32.042969 45.75 "/>
<path style=" stroke:none;fill-rule:evenodd;fill:rgb(16.078431%,10.980392%,3.921569%);fill-opacity:1;" d="M 22.480469 19.097656 L 22.859375 23.226562 L 24.945312 17.21875 L 25.511719 20.222656 L 29.109375 16.28125 L 28.730469 19.097656 L 32.519531 15.527344 L 39.714844 18.34375 L 38.582031 15.902344 L 42.9375 21.914062 L 42.367188 17.21875 L 36.6875 12.898438 L 30.625 12.898438 L 24.945312 15.339844 Z M 22.480469 19.097656 "/>
<path style=" stroke:none;fill-rule:evenodd;fill:rgb(16.078431%,10.980392%,3.921569%);fill-opacity:1;" d="M 33.378906 13.714844 L 33.308594 11.757812 L 32.886719 11.199219 L 31.6875 10.710938 L 29.574219 10.921875 L 26.117188 12.316406 L 24.425781 13.574219 L 22.804688 15.460938 L 21.183594 18.886719 L 20.972656 21.542969 L 21.101562 23.078125 L 22.050781 25.492188 L 23.945312 27.503906 L 22.863281 24.957031 L 23.132812 25.222656 L 23.328125 26.6875 L 22.875 23.570312 L 22.875 18.816406 L 27.953125 14.34375 Z M 33.378906 13.714844 "/>
<g clip-path="url(#clip1)" clip-rule="nonzero">
<path style="fill:none;stroke-width:8;stroke-linecap:butt;stroke-linejoin:miter;stroke:rgb(16.078431%,10.980392%,3.921569%);stroke-opacity:1;stroke-miterlimit:8;" d="M 236.745604 98.037442 L 236.246901 84.036424 L 233.25468 80.040126 L 224.749016 76.546858 L 209.760207 78.05595 L 185.240621 88.032723 L 173.244033 97.031381 L 161.746148 110.529368 L 150.248263 135.038136 L 148.752153 154.041514 L 149.666443 165.024348 L 156.398939 182.295065 L 169.836226 196.687329 L 162.161734 178.466443 L 164.073431 180.366781 L 165.458718 190.846585 L 162.244852 168.545562 L 162.244852 134.535106 L 198.262322 102.536771 Z M 236.745604 98.037442 " transform="matrix(0.140991,0,0,0.139778,0,0.0113873)"/>
</g>
<path style=" stroke:none;fill-rule:evenodd;fill:rgb(16.078431%,10.980392%,3.921569%);fill-opacity:1;" d="M 32.738281 13.550781 L 32.800781 11.558594 L 33.160156 10.988281 L 34.179688 10.488281 L 35.984375 10.703125 L 38.925781 12.125 L 40.371094 13.40625 L 41.75 15.328125 L 43.132812 18.816406 L 43.3125 21.519531 L 42.746094 23.613281 L 42.273438 24.914062 L 42.613281 23.75 L 42.882812 20.128906 L 42.746094 23.882812 L 41.472656 26.566406 L 41.691406 23.585938 L 41.691406 18.746094 L 37.367188 14.191406 Z M 32.738281 13.550781 "/>
<g clip-path="url(#clip2)" clip-rule="nonzero">
<path style="fill:none;stroke-width:8;stroke-linecap:butt;stroke-linejoin:miter;stroke:rgb(16.078431%,10.980392%,3.921569%);stroke-opacity:1;stroke-miterlimit:8;" d="M 232.201862 96.863704 L 232.645154 82.611171 L 235.194082 78.531034 L 242.425282 74.953928 L 255.225337 76.490966 L 276.087764 86.663362 L 286.33889 95.829697 L 296.119019 109.5792 L 305.926853 134.535106 L 307.201317 153.873837 L 303.183984 168.85297 L 299.831589 178.159036 L 302.241989 169.831085 L 304.153685 143.92501 L 303.183984 170.781254 L 294.151911 189.980254 L 295.703433 168.657347 L 295.703433 134.032075 L 265.033171 101.446872 Z M 232.201862 96.863704 " transform="matrix(0.140991,0,0,0.139778,0,0.0113873)"/>
</g>
<path style=" stroke:none;fill-rule:evenodd;fill:rgb(0%,0%,0%);fill-opacity:1;" d="M 34.648438 22.453125 C 34.648438 21.679688 35.296875 21.054688 36.09375 21.054688 C 36.476562 21.054688 36.84375 21.203125 37.117188 21.464844 C 37.386719 21.726562 37.539062 22.082031 37.539062 22.453125 C 37.539062 23.222656 36.890625 23.847656 36.09375 23.847656 C 35.296875 23.847656 34.648438 23.222656 34.648438 22.453125 Z M 34.648438 22.453125 "/>
<path style=" stroke:none;fill-rule:evenodd;fill:rgb(100%,100%,100%);fill-opacity:1;" d="M 35.988281 22.453125 C 35.988281 22.160156 36.222656 21.925781 36.515625 21.925781 C 36.65625 21.925781 36.789062 21.980469 36.890625 22.078125 C 36.988281 22.179688 37.042969 22.3125 37.042969 22.453125 C 37.042969 22.742188 36.808594 22.976562 36.515625 22.976562 C 36.222656 22.976562 35.988281 22.742188 35.988281 22.453125 Z M 35.988281 22.453125 "/>
<path style=" stroke:none;fill-rule:evenodd;fill:rgb(0%,0%,0%);fill-opacity:1;" d="M 28.726562 22.453125 C 28.726562 21.679688 29.375 21.054688 30.171875 21.054688 C 30.554688 21.054688 30.921875 21.203125 31.195312 21.464844 C 31.464844 21.726562 31.617188 22.082031 31.617188 22.453125 C 31.617188 23.222656 30.96875 23.847656 30.171875 23.847656 C 29.375 23.847656 28.726562 23.222656 28.726562 22.453125 Z M 28.726562 22.453125 "/>
<path style=" stroke:none;fill-rule:evenodd;fill:rgb(100%,100%,100%);fill-opacity:1;" d="M 30.066406 22.453125 C 30.066406 22.160156 30.304688 21.925781 30.59375 21.925781 C 30.734375 21.925781 30.871094 21.980469 30.96875 22.078125 C 31.066406 22.179688 31.121094 22.3125 31.121094 22.453125 C 31.121094 22.742188 30.886719 22.976562 30.59375 22.976562 C 30.304688 22.976562 30.066406 22.742188 30.066406 22.453125 Z M 30.066406 22.453125 "/>
<path style=" stroke:none;fill-rule:evenodd;fill:rgb(37.647059%,25.882353%,9.803922%);fill-opacity:1;" d="M 31.828125 24.476562 L 34.648438 24.53125 L 34.4375 25.117188 L 33.800781 25.597656 L 32.886719 25.597656 L 32.179688 25.277344 Z M 31.828125 24.476562 "/>
<path style=" stroke:none;fill-rule:evenodd;fill:rgb(16.078431%,10.980392%,3.921569%);fill-opacity:1;" d="M 28.050781 21.230469 L 27.691406 20.492188 L 29.226562 19.566406 L 31.730469 19.101562 L 29.429688 20.175781 Z M 28.050781 21.230469 "/>
<path style=" stroke:none;fill-rule:evenodd;fill:rgb(16.078431%,10.980392%,3.921569%);fill-opacity:1;" d="M 38.527344 21.054688 L 38.808594 20.285156 L 37.1875 19.515625 L 34.648438 19.304688 L 37.046875 20.144531 Z M 38.527344 21.054688 "/>
<path style="fill-rule:evenodd;fill:rgb(100%,100%,100%);fill-opacity:1;stroke-width:2;stroke-linecap:butt;stroke-linejoin:round;stroke:rgb(37.647059%,25.882353%,9.803922%);stroke-opacity:1;stroke-miterlimit:10;" d="M 195.186984 196.938844 C 189.09172 200.096758 219.568041 212.700469 231.75857 212.057708 C 243.921392 211.442892 274.397714 195.681268 268.302449 193.166115 C 262.207185 190.623016 201.282248 193.78093 195.186984 196.938844 Z M 195.186984 196.938844 " transform="matrix(0.140991,0,0,0.139778,0,0.0113873)"/>
<path style=" stroke:none;fill-rule:evenodd;fill:rgb(100%,100%,100%);fill-opacity:1;" d="M 32.425781 36.046875 L 47.25 27.964844 L 48.609375 30.421875 L 33.78125 38.503906 Z M 32.425781 36.046875 "/>
<path style="fill:none;stroke-width:2;stroke-linecap:butt;stroke-linejoin:round;stroke:rgb(81.960784%,33.72549%,84.313725%);stroke-opacity:1;stroke-miterlimit:10;" d="M 233.420914 268.844271 L 232.922211 333.651378 " transform="matrix(0.140991,0,0,0.139778,0,0.0113873)"/>
<path style=" stroke:none;fill-rule:evenodd;fill:rgb(100%,100%,100%);fill-opacity:1;" d="M 35.085938 47.628906 L 31.066406 47.628906 C 30.121094 47.628906 29.210938 47.253906 28.542969 46.589844 C 27.875 45.925781 27.5 45.027344 27.5 44.089844 L 27.5 32.707031 L 38.652344 32.707031 L 38.652344 44.089844 C 38.652344 46.042969 37.054688 47.628906 35.085938 47.628906 Z M 35.085938 47.628906 "/>
<path style=" stroke:none;fill-rule:evenodd;fill:rgb(62.352941%,42.745098%,16.470588%);fill-opacity:1;" d="M 35.234375 32.535156 L 33.074219 38.472656 L 30.917969 32.535156 Z M 35.234375 32.535156 "/>
<path style="fill-rule:evenodd;fill:rgb(71.764706%,71.764706%,71.764706%);fill-opacity:1;stroke-width:2;stroke-linecap:butt;stroke-linejoin:round;stroke:rgb(71.764706%,71.764706%,71.764706%);stroke-opacity:1;stroke-miterlimit:10;" d="M 246.304087 233.045261 L 265.753521 238.047621 L 236.77331 270.018009 Z M 246.304087 233.045261 " transform="matrix(0.140991,0,0,0.139778,0,0.0113873)"/>
<path style=" stroke:none;fill-rule:evenodd;fill:rgb(95.294118%,14.509804%,31.372549%);fill-opacity:1;" d="M 34.273438 34.332031 L 33.074219 38.5625 L 31.878906 34.332031 Z M 34.273438 34.332031 "/>
<path style="fill:none;stroke-width:4;stroke-linecap:round;stroke-linejoin:round;stroke:rgb(71.764706%,71.764706%,71.764706%);stroke-opacity:1;stroke-miterlimit:10;" d="M 234.307498 270.968178 L 234.002735 328.844641 " transform="matrix(0.140991,0,0,0.139778,0,0.0113873)"/>
<path style=" stroke:none;fill-rule:evenodd;fill:rgb(62.352941%,42.745098%,16.470588%);fill-opacity:1;" d="M 17.265625 27.933594 C 17.15625 27.582031 16.339844 26.828125 15.84375 26.378906 C 15.351562 25.929688 14.65625 25.367188 14.296875 25.234375 C 13.933594 25.101562 13.597656 25.289062 13.671875 25.582031 C 13.746094 25.875 14.269531 26.507812 14.738281 26.988281 C 15.210938 27.46875 16.070312 28.308594 16.488281 28.464844 C 16.910156 28.625 17.371094 28.28125 17.265625 27.933594 Z M 17.265625 27.933594 "/>
<path style=" stroke:none;fill-rule:evenodd;fill:rgb(62.352941%,42.745098%,16.470588%);fill-opacity:1;" d="M 16.492188 28.03125 C 16.269531 27.667969 15.1875 26.976562 14.539062 26.566406 C 13.886719 26.15625 12.992188 25.652344 12.582031 25.570312 C 12.167969 25.484375 11.886719 25.753906 12.058594 26.0625 C 12.230469 26.371094 12.972656 26.980469 13.609375 27.429688 C 14.246094 27.878906 15.394531 28.65625 15.875 28.757812 C 16.355469 28.855469 16.714844 28.398438 16.492188 28.03125 Z M 16.492188 28.03125 "/>
<path style=" stroke:none;fill-rule:evenodd;fill:rgb(62.352941%,42.745098%,16.470588%);fill-opacity:1;" d="M 16.246094 28.496094 C 15.964844 28.183594 14.84375 27.699219 14.167969 27.414062 C 13.496094 27.125 12.585938 26.792969 12.199219 26.777344 C 11.8125 26.765625 11.621094 27.066406 11.84375 27.332031 C 12.066406 27.601562 12.867188 28.058594 13.535156 28.382812 C 14.207031 28.707031 15.410156 29.265625 15.859375 29.28125 C 16.3125 29.300781 16.527344 28.804688 16.246094 28.496094 Z M 16.246094 28.496094 "/>
<path style=" stroke:none;fill-rule:evenodd;fill:rgb(62.352941%,42.745098%,16.470588%);fill-opacity:1;" d="M 16.429688 28.59375 C 16.105469 28.375 15.105469 28.277344 14.503906 28.222656 C 13.902344 28.167969 13.113281 28.148438 12.828125 28.273438 C 12.542969 28.402344 12.527344 28.78125 12.792969 28.976562 C 13.058594 29.175781 13.820312 29.363281 14.429688 29.457031 C 15.042969 29.550781 16.132812 29.695312 16.464844 29.550781 C 16.796875 29.40625 16.757812 28.816406 16.429688 28.59375 Z M 16.429688 28.59375 "/>
<path style=" stroke:none;fill-rule:evenodd;fill:rgb(62.352941%,42.745098%,16.470588%);fill-opacity:1;" d="M 16.613281 27.234375 L 15.632812 29.253906 L 18.621094 31.0625 L 19.601562 29.042969 Z M 16.613281 27.234375 "/>
<path style=" stroke:none;fill-rule:evenodd;fill:rgb(100%,100%,100%);fill-opacity:1;" d="M 17.917969 27.800781 L 28.988281 33.417969 L 27.703125 35.902344 L 16.628906 30.289062 Z M 17.917969 27.800781 "/>
<path style="fill-rule:evenodd;fill:rgb(71.764706%,71.764706%,71.764706%);fill-opacity:1;stroke-width:2;stroke-linecap:butt;stroke-linejoin:round;stroke:rgb(71.764706%,71.764706%,71.764706%);stroke-opacity:1;stroke-miterlimit:10;" d="M 223.031259 233.352669 L 203.74806 237.90789 L 231.75857 270.045955 Z M 223.031259 233.352669 " transform="matrix(0.140991,0,0,0.139778,0,0.0113873)"/>
<path style=" stroke:none;fill-rule:evenodd;fill:rgb(16.078431%,10.980392%,3.921569%);fill-opacity:1;" d="M 25.671875 13.371094 L 23.972656 12.285156 L 23.578125 9.878906 L 24.566406 7.980469 L 26.273438 6.109375 L 28.652344 5.617188 L 31.460938 5.664062 L 33.492188 6.238281 L 34.933594 7.769531 L 35.402344 9.425781 L 35.089844 10.871094 L 33.65625 12.074219 L 31.613281 12.882812 L 28.835938 13.15625 Z M 25.671875 13.371094 "/>
<path style=" stroke:none;fill-rule:evenodd;fill:rgb(62.352941%,42.745098%,16.470588%);fill-opacity:1;" d="M 23.824219 25.246094 C 22.503906 25.140625 21.46875 24.144531 21.472656 22.976562 C 21.472656 21.808594 22.507812 20.886719 23.824219 20.875 Z M 23.824219 25.246094 "/>
<path style=" stroke:none;fill-rule:evenodd;fill:rgb(62.352941%,42.745098%,16.470588%);fill-opacity:1;" d="M 41.097656 20.773438 C 42.480469 20.957031 43.523438 22.023438 43.464844 23.191406 C 43.410156 24.359375 42.273438 25.21875 40.886719 25.140625 Z M 41.097656 20.773438 "/>
<path style="fill-rule:evenodd;fill:rgb(95.294118%,14.509804%,31.372549%);fill-opacity:1;stroke-width:8;stroke-linecap:butt;stroke-linejoin:round;stroke:rgb(95.294118%,14.509804%,31.372549%);stroke-opacity:1;stroke-miterlimit:10;" d="M 197.846736 78.754603 C 199.980078 76.658643 215.024299 80.962349 215.910883 83.952586 C 216.769761 86.914877 206.103048 97.478519 203.083122 96.612189 C 200.063196 95.745859 195.713393 80.87851 197.846736 78.754603 Z M 197.846736 78.754603 " transform="matrix(0.140991,0,0,0.139778,0,0.0113873)"/>
<path style="fill-rule:evenodd;fill:rgb(95.294118%,14.509804%,31.372549%);fill-opacity:1;stroke-width:8;stroke-linecap:butt;stroke-linejoin:round;stroke:rgb(95.294118%,14.509804%,31.372549%);stroke-opacity:1;stroke-miterlimit:10;" d="M 233.808795 89.569761 C 231.703158 91.665722 216.880584 87.306123 216.021706 84.315886 C 215.135122 81.353595 225.6356 70.817899 228.600115 71.712175 C 231.564629 72.578506 235.914432 87.445854 233.808795 89.569761 Z M 233.808795 89.569761 " transform="matrix(0.140991,0,0,0.139778,0,0.0113873)"/>
<path style="fill-rule:evenodd;fill:rgb(95.294118%,14.509804%,31.372549%);fill-opacity:1;stroke-width:8;stroke-linecap:butt;stroke-linejoin:round;stroke:rgb(95.294118%,14.509804%,31.372549%);stroke-opacity:1;stroke-miterlimit:10;" d="M 209.178386 83.337771 C 209.039857 82.722956 209.427738 82.108141 210.037264 81.96841 L 220.149862 79.676826 C 220.426919 79.592988 220.731683 79.64888 221.00874 79.816557 C 221.258092 79.984234 221.424326 80.235749 221.507443 80.51521 L 222.532556 84.958647 C 222.671085 85.573462 222.283204 86.188278 221.673678 86.328008 L 211.56108 88.647538 C 210.951554 88.787269 210.342028 88.396023 210.203499 87.781208 Z M 209.178386 83.337771 " transform="matrix(0.140991,0,0,0.139778,0,0.0113873)"/>
<path style=" stroke:none;fill-rule:evenodd;fill:rgb(95.294118%,14.509804%,31.372549%);fill-opacity:1;" d="M 22.742188 24.386719 C 22.742188 24.175781 22.921875 24.003906 23.144531 24.003906 C 23.25 24.003906 23.351562 24.042969 23.429688 24.117188 C 23.503906 24.1875 23.546875 24.285156 23.546875 24.386719 C 23.546875 24.597656 23.367188 24.769531 23.144531 24.769531 C 22.921875 24.769531 22.742188 24.597656 22.742188 24.386719 Z M 22.742188 24.386719 "/>
<path style=" stroke:none;fill-rule:evenodd;fill:rgb(95.294118%,14.509804%,31.372549%);fill-opacity:1;" d="M 41.074219 24.386719 C 41.074219 24.175781 41.253906 24.003906 41.476562 24.003906 C 41.582031 24.003906 41.6875 24.042969 41.761719 24.117188 C 41.835938 24.1875 41.878906 24.285156 41.878906 24.386719 C 41.878906 24.597656 41.699219 24.769531 41.476562 24.769531 C 41.253906 24.769531 41.074219 24.597656 41.074219 24.386719 Z M 41.074219 24.386719 "/>
<path style="fill-rule:evenodd;fill:rgb(100%,100%,100%);fill-opacity:0.388235;stroke-width:8;stroke-linecap:butt;stroke-linejoin:round;stroke:rgb(40%,40%,40%);stroke-opacity:1;stroke-miterlimit:10;" d="M 291.325925 155.271144 C 292.905152 160.413235 292.378743 163.682933 291.325925 166.589332 C 290.273106 169.523677 289.996049 170.725361 285.03672 172.76543 C 280.105097 174.833445 269.853971 179.220989 261.65307 178.913581 C 253.452169 178.606174 242.89628 171.060715 235.831314 170.920984 C 228.738643 170.781254 224.499664 176.733782 219.152455 178.047251 C 213.832952 179.388666 210.148087 178.773851 203.831177 178.913581 C 197.514267 179.053312 186.016382 181.149273 181.306405 178.913581 C 176.568723 176.67789 175.155729 172.066776 175.405081 165.555325 C 175.682139 159.015927 172.828447 145.238479 182.913339 139.761035 C 192.970524 134.255644 219.318689 133.305475 235.831314 132.606822 C 252.316234 131.936114 272.652251 131.936114 281.905971 135.708844 C 291.131984 139.481573 289.746697 150.129054 291.325925 155.271144 Z M 291.325925 155.271144 " transform="matrix(0.140991,0,0,0.139778,0,0.0113873)"/>
<path style="fill-rule:evenodd;fill:rgb(93.72549%,93.72549%,93.72549%);fill-opacity:1;stroke-width:4;stroke-linecap:butt;stroke-linejoin:round;stroke:rgb(71.764706%,71.764706%,71.764706%);stroke-opacity:1;stroke-miterlimit:10;" d="M 353.30368 181.847927 C 359.011063 165.499433 377.186033 157.031751 393.892598 162.872495 C 401.899559 165.695056 408.493527 171.507853 412.206097 179.025366 C 415.946372 186.570825 416.472782 195.206183 413.729913 203.059049 C 407.994823 219.379597 389.819853 227.875225 373.140994 222.006535 C 356.434429 216.165791 347.56859 198.168474 353.30368 181.847927 Z M 353.30368 181.847927 " transform="matrix(0.140991,0,0,0.139778,0,0.0113873)"/>
<path style="fill:none;stroke-width:3;stroke-linecap:round;stroke-linejoin:round;stroke:rgb(97.647059%,52.54902%,38.823529%);stroke-opacity:1;stroke-miterlimit:10;" d="M 358.51236 177.54422 L 377.657031 165.834786 L 357.681188 179.332774 L 380.98172 165.974517 L 356.711486 182.630419 L 385.054465 167.232094 L 357.01625 186.039848 L 388.600801 169.495731 L 355.90802 188.079917 L 385.719403 173.380245 " transform="matrix(0.140991,0,0,0.139778,0,0.0113873)"/>
<path style="fill:none;stroke-width:2;stroke-linecap:round;stroke-linejoin:round;stroke:rgb(97.647059%,52.54902%,38.823529%);stroke-opacity:1;stroke-miterlimit:10;" d="M 408.354998 194.842883 L 384.805113 171.67553 L 404.531605 186.235471 L 389.016387 170.501792 L 408.354998 181.959711 L 394.557536 169.104485 L 401.37315 172.485968 " transform="matrix(0.140991,0,0,0.139778,0,0.0113873)"/>
<path style="fill:none;stroke-width:2;stroke-linecap:round;stroke-linejoin:round;stroke:rgb(97.647059%,52.54902%,38.823529%);stroke-opacity:1;stroke-miterlimit:10;" d="M 407.246768 187.604832 L 403.838961 213.902153 L 401.899559 194.675206 L 397.882226 217.11596 L 398.186989 202.667803 " transform="matrix(0.140991,0,0,0.139778,0,0.0113873)"/>
<path style=" stroke:none;fill-rule:evenodd;fill:rgb(97.647059%,52.54902%,38.823529%);fill-opacity:1;" d="M 51.457031 25.5 C 51.523438 25.3125 51.734375 25.210938 51.921875 25.277344 C 52.011719 25.308594 52.085938 25.375 52.128906 25.464844 C 52.171875 25.550781 52.175781 25.648438 52.144531 25.742188 C 52.078125 25.929688 51.867188 26.03125 51.679688 25.964844 C 51.488281 25.898438 51.390625 25.691406 51.457031 25.5 Z M 51.457031 25.5 "/>
<path style=" stroke:none;fill-rule:evenodd;fill:rgb(97.647059%,52.54902%,38.823529%);fill-opacity:1;" d="M 52.03125 23.59375 C 52.101562 23.402344 52.308594 23.304688 52.496094 23.367188 C 52.585938 23.402344 52.664062 23.46875 52.703125 23.554688 C 52.746094 23.640625 52.75 23.738281 52.71875 23.832031 C 52.652344 24.019531 52.445312 24.121094 52.253906 24.054688 C 52.066406 23.988281 51.964844 23.78125 52.03125 23.59375 Z M 52.03125 23.59375 "/>
<path style=" stroke:none;fill-rule:evenodd;fill:rgb(97.647059%,52.54902%,38.823529%);fill-opacity:1;" d="M 51.921875 25.246094 C 51.988281 25.058594 52.195312 24.957031 52.386719 25.023438 C 52.476562 25.054688 52.550781 25.121094 52.59375 25.207031 C 52.632812 25.292969 52.636719 25.394531 52.605469 25.484375 C 52.539062 25.675781 52.332031 25.773438 52.140625 25.707031 C 51.953125 25.640625 51.855469 25.4375 51.921875 25.246094 Z M 51.921875 25.246094 "/>
<path style=" stroke:none;fill-rule:evenodd;fill:rgb(97.647059%,52.54902%,38.823529%);fill-opacity:1;" d="M 55.855469 24.921875 C 55.902344 24.789062 56.0625 24.726562 56.214844 24.777344 C 56.367188 24.832031 56.453125 24.980469 56.40625 25.113281 C 56.359375 25.246094 56.199219 25.3125 56.046875 25.257812 C 55.894531 25.203125 55.808594 25.054688 55.855469 24.921875 Z M 55.855469 24.921875 "/>
<path style=" stroke:none;fill-rule:evenodd;fill:rgb(97.647059%,52.54902%,38.823529%);fill-opacity:1;" d="M 55.285156 24.070312 C 55.332031 23.9375 55.492188 23.871094 55.644531 23.925781 C 55.800781 23.980469 55.886719 24.128906 55.839844 24.261719 C 55.792969 24.394531 55.628906 24.457031 55.476562 24.40625 C 55.324219 24.351562 55.238281 24.203125 55.285156 24.070312 Z M 55.285156 24.070312 "/>
<path style=" stroke:none;fill-rule:evenodd;fill:rgb(97.647059%,52.54902%,38.823529%);fill-opacity:1;" d="M 55.882812 25.910156 C 55.925781 25.792969 56.058594 25.734375 56.183594 25.777344 C 56.242188 25.796875 56.292969 25.839844 56.320312 25.894531 C 56.347656 25.949219 56.351562 26.011719 56.332031 26.066406 C 56.292969 26.183594 56.15625 26.246094 56.03125 26.203125 C 55.910156 26.15625 55.839844 26.027344 55.882812 25.910156 Z M 55.882812 25.910156 "/>
<path style=" stroke:none;fill-rule:evenodd;fill:rgb(97.647059%,52.54902%,38.823529%);fill-opacity:1;" d="M 57.488281 27.957031 C 57.527344 27.84375 57.664062 27.78125 57.785156 27.824219 C 57.847656 27.847656 57.894531 27.886719 57.921875 27.941406 C 57.953125 27.996094 57.957031 28.058594 57.9375 28.113281 C 57.894531 28.230469 57.761719 28.292969 57.636719 28.25 C 57.511719 28.207031 57.445312 28.074219 57.488281 27.957031 Z M 57.488281 27.957031 "/>
<path style=" stroke:none;fill-rule:evenodd;fill:rgb(97.647059%,52.54902%,38.823529%);fill-opacity:1;" d="M 57.144531 28.191406 C 57.203125 28.03125 57.371094 27.945312 57.523438 27.996094 C 57.597656 28.023438 57.65625 28.078125 57.691406 28.152344 C 57.722656 28.222656 57.726562 28.308594 57.699219 28.386719 C 57.640625 28.546875 57.472656 28.636719 57.316406 28.582031 C 57.164062 28.527344 57.085938 28.355469 57.144531 28.191406 Z M 57.144531 28.191406 "/>
<path style=" stroke:none;fill-rule:evenodd;fill:rgb(97.647059%,52.54902%,38.823529%);fill-opacity:1;" d="M 56.246094 27.699219 C 56.289062 27.582031 56.421875 27.523438 56.546875 27.566406 C 56.605469 27.585938 56.65625 27.628906 56.683594 27.683594 C 56.710938 27.738281 56.714844 27.800781 56.695312 27.855469 C 56.652344 27.972656 56.519531 28.03125 56.394531 27.988281 C 56.273438 27.945312 56.203125 27.816406 56.246094 27.699219 Z M 56.246094 27.699219 "/>
<path style=" stroke:none;fill-rule:evenodd;fill:rgb(97.647059%,52.54902%,38.823529%);fill-opacity:1;" d="M 56.054688 29.847656 C 56.097656 29.730469 56.230469 29.667969 56.355469 29.714844 C 56.414062 29.734375 56.464844 29.777344 56.492188 29.832031 C 56.519531 29.882812 56.523438 29.945312 56.503906 30.003906 C 56.464844 30.121094 56.328125 30.179688 56.203125 30.136719 C 56.082031 30.09375 56.011719 29.964844 56.054688 29.847656 Z M 56.054688 29.847656 "/>
<path style=" stroke:none;fill-rule:evenodd;fill:rgb(97.647059%,52.54902%,38.823529%);fill-opacity:1;" d="M 55.886719 28.992188 C 55.929688 28.875 56.0625 28.816406 56.1875 28.859375 C 56.246094 28.878906 56.296875 28.921875 56.324219 28.976562 C 56.351562 29.03125 56.355469 29.089844 56.335938 29.148438 C 56.296875 29.265625 56.160156 29.324219 56.035156 29.28125 C 55.914062 29.238281 55.847656 29.109375 55.886719 28.992188 Z M 55.886719 28.992188 "/>
<path style=" stroke:none;fill-rule:evenodd;fill:rgb(97.647059%,52.54902%,38.823529%);fill-opacity:1;" d="M 55.554688 28.875 C 55.59375 28.757812 55.730469 28.699219 55.855469 28.742188 C 55.914062 28.761719 55.964844 28.804688 55.992188 28.859375 C 56.019531 28.914062 56.023438 28.976562 56.003906 29.03125 C 55.960938 29.148438 55.828125 29.207031 55.703125 29.164062 C 55.582031 29.121094 55.511719 28.992188 55.554688 28.875 Z M 55.554688 28.875 "/>
<path style=" stroke:none;fill-rule:evenodd;fill:rgb(97.647059%,52.54902%,38.823529%);fill-opacity:1;" d="M 55.207031 29.859375 C 55.246094 29.742188 55.382812 29.683594 55.503906 29.726562 C 55.566406 29.746094 55.613281 29.789062 55.644531 29.84375 C 55.671875 29.898438 55.675781 29.960938 55.65625 30.015625 C 55.613281 30.132812 55.480469 30.191406 55.355469 30.148438 C 55.230469 30.105469 55.164062 29.976562 55.207031 29.859375 Z M 55.207031 29.859375 "/>
<path style=" stroke:none;fill-rule:evenodd;fill:rgb(97.647059%,52.54902%,38.823529%);fill-opacity:1;" d="M 54.175781 29.828125 C 54.242188 29.640625 54.449219 29.539062 54.640625 29.605469 C 54.730469 29.636719 54.804688 29.703125 54.847656 29.789062 C 54.886719 29.875 54.894531 29.976562 54.859375 30.066406 C 54.792969 30.257812 54.585938 30.355469 54.398438 30.289062 C 54.207031 30.226562 54.109375 30.019531 54.175781 29.828125 Z M 54.175781 29.828125 "/>
<path style=" stroke:none;fill-rule:evenodd;fill:rgb(97.647059%,52.54902%,38.823529%);fill-opacity:1;" d="M 53.347656 30.164062 C 53.390625 30.046875 53.523438 29.988281 53.648438 30.03125 C 53.707031 30.050781 53.757812 30.09375 53.785156 30.148438 C 53.8125 30.203125 53.816406 30.265625 53.796875 30.320312 C 53.757812 30.4375 53.621094 30.496094 53.5 30.453125 C 53.375 30.410156 53.308594 30.28125 53.347656 30.164062 Z M 53.347656 30.164062 "/>
<path style=" stroke:none;fill-rule:evenodd;fill:rgb(97.647059%,52.54902%,38.823529%);fill-opacity:1;" d="M 52.367188 29.347656 C 52.40625 29.230469 52.539062 29.167969 52.664062 29.214844 C 52.726562 29.234375 52.773438 29.277344 52.800781 29.332031 C 52.832031 29.382812 52.835938 29.445312 52.816406 29.503906 C 52.773438 29.621094 52.640625 29.679688 52.515625 29.636719 C 52.390625 29.59375 52.324219 29.464844 52.367188 29.347656 Z M 52.367188 29.347656 "/>
<path style=" stroke:none;fill-rule:evenodd;fill:rgb(97.647059%,52.54902%,38.823529%);fill-opacity:1;" d="M 54.015625 26.121094 C 54.058594 26.003906 54.191406 25.945312 54.316406 25.988281 C 54.375 26.011719 54.425781 26.050781 54.453125 26.105469 C 54.480469 26.160156 54.484375 26.222656 54.464844 26.277344 C 54.425781 26.394531 54.289062 26.457031 54.164062 26.414062 C 54.042969 26.367188 53.972656 26.238281 54.015625 26.121094 Z M 54.015625 26.121094 "/>
<path style=" stroke:none;fill-rule:evenodd;fill:rgb(97.647059%,52.54902%,38.823529%);fill-opacity:1;" d="M 53.042969 26.363281 C 53.078125 26.269531 53.179688 26.222656 53.269531 26.253906 C 53.316406 26.269531 53.351562 26.300781 53.371094 26.34375 C 53.394531 26.386719 53.394531 26.4375 53.378906 26.480469 C 53.347656 26.574219 53.246094 26.621094 53.152344 26.589844 C 53.058594 26.558594 53.011719 26.457031 53.042969 26.363281 Z M 53.042969 26.363281 "/>
<path style=" stroke:none;fill-rule:evenodd;fill:rgb(97.647059%,52.54902%,38.823529%);fill-opacity:1;" d="M 53.214844 26.949219 C 53.253906 26.832031 53.390625 26.769531 53.515625 26.8125 C 53.574219 26.835938 53.621094 26.878906 53.652344 26.933594 C 53.679688 26.984375 53.683594 27.046875 53.664062 27.105469 C 53.621094 27.222656 53.488281 27.28125 53.363281 27.238281 C 53.238281 27.195312 53.171875 27.066406 53.214844 26.949219 Z M 53.214844 26.949219 "/>
<path style=" stroke:none;fill-rule:evenodd;fill:rgb(97.647059%,52.54902%,38.823529%);fill-opacity:1;" d="M 51.488281 29.371094 C 51.554688 29.179688 51.761719 29.082031 51.953125 29.144531 C 52.042969 29.175781 52.117188 29.242188 52.160156 29.332031 C 52.199219 29.417969 52.207031 29.515625 52.175781 29.609375 C 52.105469 29.796875 51.898438 29.898438 51.710938 29.832031 C 51.519531 29.765625 51.421875 29.558594 51.488281 29.371094 Z M 51.488281 29.371094 "/>
<path style=" stroke:none;fill-rule:evenodd;fill:rgb(97.647059%,52.54902%,38.823529%);fill-opacity:1;" d="M 51.527344 28.90625 C 51.570312 28.789062 51.703125 28.730469 51.828125 28.773438 C 51.886719 28.792969 51.9375 28.835938 51.964844 28.890625 C 51.992188 28.945312 51.996094 29.007812 51.976562 29.0625 C 51.933594 29.179688 51.800781 29.242188 51.675781 29.199219 C 51.554688 29.152344 51.484375 29.023438 51.527344 28.90625 Z M 51.527344 28.90625 "/>
<path style=" stroke:none;fill-rule:evenodd;fill:rgb(97.647059%,52.54902%,38.823529%);fill-opacity:1;" d="M 53.804688 29.550781 C 53.84375 29.433594 53.980469 29.375 54.101562 29.417969 C 54.164062 29.441406 54.210938 29.480469 54.242188 29.535156 C 54.269531 29.589844 54.273438 29.652344 54.253906 29.707031 C 54.210938 29.824219 54.078125 29.886719 53.953125 29.84375 C 53.828125 29.800781 53.761719 29.667969 53.804688 29.550781 Z M 53.804688 29.550781 "/>
<path style=" stroke:none;fill-rule:evenodd;fill:rgb(97.647059%,52.54902%,38.823529%);fill-opacity:1;" d="M 55.101562 30.152344 C 55.117188 30.109375 55.160156 30.089844 55.203125 30.101562 C 55.222656 30.109375 55.238281 30.125 55.246094 30.144531 C 55.257812 30.160156 55.257812 30.183594 55.25 30.203125 C 55.234375 30.242188 55.191406 30.265625 55.152344 30.25 C 55.109375 30.238281 55.089844 30.191406 55.101562 30.152344 Z M 55.101562 30.152344 "/>
<path style=" stroke:none;fill-rule:evenodd;fill:rgb(97.647059%,52.54902%,38.823529%);fill-opacity:1;" d="M 54.445312 28.230469 C 54.488281 28.113281 54.621094 28.054688 54.746094 28.097656 C 54.804688 28.121094 54.855469 28.160156 54.882812 28.214844 C 54.910156 28.269531 54.914062 28.332031 54.894531 28.386719 C 54.855469 28.503906 54.71875 28.566406 54.59375 28.523438 C 54.472656 28.480469 54.402344 28.347656 54.445312 28.230469 Z M 54.445312 28.230469 "/>
<path style=" stroke:none;fill-rule:evenodd;fill:rgb(97.647059%,52.54902%,38.823529%);fill-opacity:1;" d="M 54.714844 30.164062 C 54.730469 30.125 54.777344 30.101562 54.816406 30.117188 C 54.835938 30.125 54.851562 30.136719 54.859375 30.15625 C 54.871094 30.175781 54.871094 30.195312 54.863281 30.214844 C 54.851562 30.257812 54.804688 30.277344 54.765625 30.265625 C 54.722656 30.25 54.703125 30.203125 54.714844 30.164062 Z M 54.714844 30.164062 "/>
<path style=" stroke:none;fill-rule:evenodd;fill:rgb(97.647059%,52.54902%,38.823529%);fill-opacity:1;" d="M 54.964844 30.074219 C 54.984375 30.015625 55.046875 29.988281 55.105469 30.007812 C 55.136719 30.019531 55.160156 30.039062 55.171875 30.0625 C 55.183594 30.089844 55.1875 30.121094 55.175781 30.148438 C 55.15625 30.203125 55.09375 30.230469 55.035156 30.210938 C 54.976562 30.191406 54.945312 30.128906 54.964844 30.074219 Z M 54.964844 30.074219 "/>
<path style=" stroke:none;fill-rule:evenodd;fill:rgb(97.647059%,52.54902%,38.823529%);fill-opacity:1;" d="M 53.84375 30.1875 C 53.859375 30.148438 53.902344 30.125 53.945312 30.140625 C 53.964844 30.148438 53.980469 30.160156 53.988281 30.179688 C 53.996094 30.199219 54 30.222656 53.992188 30.242188 C 53.976562 30.28125 53.933594 30.300781 53.890625 30.289062 C 53.851562 30.273438 53.828125 30.230469 53.84375 30.1875 Z M 53.84375 30.1875 "/>
<path style=" stroke:none;fill-rule:evenodd;fill:rgb(97.647059%,52.54902%,38.823529%);fill-opacity:1;" d="M 53.632812 26.972656 C 53.644531 26.929688 53.691406 26.910156 53.730469 26.921875 C 53.75 26.929688 53.765625 26.945312 53.777344 26.960938 C 53.785156 26.980469 53.785156 27.003906 53.78125 27.023438 C 53.765625 27.0625 53.71875 27.085938 53.679688 27.070312 C 53.636719 27.054688 53.617188 27.011719 53.632812 26.972656 Z M 53.632812 26.972656 "/>
<path style=" stroke:none;fill-rule:evenodd;fill:rgb(97.647059%,52.54902%,38.823529%);fill-opacity:1;" d="M 54.792969 26.101562 C 54.8125 26.046875 54.875 26.019531 54.933594 26.039062 C 54.964844 26.046875 54.988281 26.070312 55 26.09375 C 55.011719 26.121094 55.015625 26.148438 55.003906 26.175781 C 54.984375 26.234375 54.921875 26.261719 54.863281 26.242188 C 54.804688 26.222656 54.773438 26.160156 54.792969 26.101562 Z M 54.792969 26.101562 "/>
<path style=" stroke:none;fill-rule:evenodd;fill:rgb(97.647059%,52.54902%,38.823529%);fill-opacity:1;" d="M 54.378906 26.625 C 54.394531 26.582031 54.4375 26.5625 54.480469 26.578125 C 54.5 26.582031 54.515625 26.597656 54.523438 26.617188 C 54.535156 26.636719 54.535156 26.65625 54.527344 26.675781 C 54.511719 26.714844 54.46875 26.738281 54.425781 26.722656 C 54.386719 26.710938 54.367188 26.664062 54.378906 26.625 Z M 54.378906 26.625 "/>
<path style=" stroke:none;fill-rule:evenodd;fill:rgb(97.647059%,52.54902%,38.823529%);fill-opacity:1;" d="M 56.339844 29.519531 C 56.355469 29.480469 56.398438 29.457031 56.441406 29.472656 C 56.460938 29.480469 56.476562 29.492188 56.484375 29.511719 C 56.492188 29.53125 56.496094 29.550781 56.488281 29.570312 C 56.472656 29.613281 56.429688 29.632812 56.386719 29.621094 C 56.347656 29.605469 56.324219 29.5625 56.339844 29.519531 Z M 56.339844 29.519531 "/>
<path style=" stroke:none;fill-rule:evenodd;fill:rgb(97.647059%,52.54902%,38.823529%);fill-opacity:1;" d="M 57.03125 29.472656 C 57.046875 29.433594 57.089844 29.410156 57.132812 29.425781 C 57.152344 29.433594 57.167969 29.445312 57.175781 29.464844 C 57.183594 29.484375 57.1875 29.503906 57.179688 29.523438 C 57.164062 29.566406 57.121094 29.585938 57.078125 29.574219 C 57.039062 29.558594 57.015625 29.515625 57.03125 29.472656 Z M 57.03125 29.472656 "/>
<path style=" stroke:none;fill-rule:evenodd;fill:rgb(97.647059%,52.54902%,38.823529%);fill-opacity:1;" d="M 51.425781 25.957031 C 51.441406 25.917969 51.484375 25.898438 51.527344 25.910156 C 51.546875 25.917969 51.5625 25.933594 51.570312 25.949219 C 51.582031 25.96875 51.582031 25.992188 51.574219 26.011719 C 51.558594 26.050781 51.515625 26.074219 51.476562 26.058594 C 51.433594 26.042969 51.414062 26 51.425781 25.957031 Z M 51.425781 25.957031 "/>
<path style=" stroke:none;fill-rule:evenodd;fill:rgb(97.647059%,52.54902%,38.823529%);fill-opacity:1;" d="M 51.695312 23.828125 C 51.710938 23.785156 51.753906 23.765625 51.796875 23.777344 C 51.816406 23.785156 51.832031 23.800781 51.839844 23.820312 C 51.847656 23.835938 51.851562 23.859375 51.84375 23.878906 C 51.828125 23.917969 51.785156 23.941406 51.742188 23.925781 C 51.703125 23.914062 51.679688 23.867188 51.695312 23.828125 Z M 51.695312 23.828125 "/>
<path style=" stroke:none;fill-rule:evenodd;fill:rgb(97.647059%,52.54902%,38.823529%);fill-opacity:1;" d="M 56.789062 25.597656 C 56.800781 25.558594 56.847656 25.535156 56.886719 25.550781 C 56.90625 25.558594 56.921875 25.570312 56.933594 25.589844 C 56.941406 25.609375 56.941406 25.628906 56.933594 25.648438 C 56.921875 25.691406 56.875 25.710938 56.835938 25.699219 C 56.792969 25.683594 56.773438 25.640625 56.789062 25.597656 Z M 56.789062 25.597656 "/>
<path style=" stroke:none;fill-rule:evenodd;fill:rgb(97.647059%,52.54902%,38.823529%);fill-opacity:1;" d="M 56.964844 24.53125 C 56.976562 24.488281 57.023438 24.46875 57.0625 24.484375 C 57.082031 24.488281 57.097656 24.503906 57.109375 24.523438 C 57.117188 24.542969 57.117188 24.5625 57.109375 24.582031 C 57.097656 24.621094 57.050781 24.644531 57.011719 24.628906 C 56.96875 24.617188 56.949219 24.570312 56.964844 24.53125 Z M 56.964844 24.53125 "/>
<path style=" stroke:none;fill-rule:evenodd;fill:rgb(97.647059%,52.54902%,38.823529%);fill-opacity:1;" d="M 52.335938 28.960938 C 52.351562 28.921875 52.394531 28.898438 52.4375 28.914062 C 52.457031 28.921875 52.472656 28.933594 52.480469 28.953125 C 52.488281 28.972656 52.492188 28.992188 52.484375 29.011719 C 52.46875 29.054688 52.425781 29.074219 52.382812 29.0625 C 52.34375 29.046875 52.320312 29 52.335938 28.960938 Z M 52.335938 28.960938 "/>
<path style=" stroke:none;fill-rule:evenodd;fill:rgb(97.647059%,52.54902%,38.823529%);fill-opacity:1;" d="M 51.285156 28.972656 C 51.300781 28.929688 51.347656 28.910156 51.386719 28.921875 C 51.40625 28.929688 51.421875 28.945312 51.429688 28.960938 C 51.441406 28.980469 51.441406 29.003906 51.433594 29.023438 C 51.421875 29.0625 51.375 29.085938 51.335938 29.070312 C 51.292969 29.054688 51.273438 29.011719 51.285156 28.972656 Z M 51.285156 28.972656 "/>
<path style=" stroke:none;fill-rule:evenodd;fill:rgb(97.647059%,52.54902%,38.823529%);fill-opacity:1;" d="M 52.667969 26.886719 C 52.683594 26.84375 52.730469 26.824219 52.769531 26.835938 C 52.789062 26.84375 52.804688 26.859375 52.8125 26.878906 C 52.824219 26.894531 52.824219 26.917969 52.816406 26.9375 C 52.804688 26.976562 52.757812 27 52.71875 26.984375 C 52.675781 26.96875 52.65625 26.925781 52.667969 26.886719 Z M 52.667969 26.886719 "/>
<path style=" stroke:none;fill-rule:evenodd;fill:rgb(97.647059%,52.54902%,38.823529%);fill-opacity:1;" d="M 53.585938 28.863281 C 53.652344 28.675781 53.863281 28.574219 54.050781 28.640625 C 54.140625 28.671875 54.214844 28.738281 54.257812 28.824219 C 54.300781 28.914062 54.304688 29.011719 54.273438 29.101562 C 54.207031 29.292969 53.996094 29.390625 53.808594 29.328125 C 53.621094 29.261719 53.519531 29.054688 53.585938 28.863281 Z M 53.585938 28.863281 "/>
<path style=" stroke:none;fill-rule:evenodd;fill:rgb(97.647059%,52.54902%,38.823529%);fill-opacity:1;" d="M 52.171875 28.199219 C 52.128906 28 52.265625 27.8125 52.472656 27.777344 C 52.574219 27.761719 52.675781 27.785156 52.761719 27.839844 C 52.847656 27.894531 52.90625 27.980469 52.925781 28.078125 C 52.96875 28.277344 52.835938 28.464844 52.625 28.5 C 52.417969 28.53125 52.214844 28.398438 52.171875 28.199219 Z M 52.171875 28.199219 "/>
<path style=" stroke:none;fill-rule:evenodd;fill:rgb(97.647059%,52.54902%,38.823529%);fill-opacity:1;" d="M 53.28125 29.710938 C 53.339844 29.542969 53.539062 29.460938 53.730469 29.527344 C 53.917969 29.59375 54.023438 29.78125 53.964844 29.949219 C 53.90625 30.117188 53.703125 30.195312 53.515625 30.132812 C 53.328125 30.066406 53.222656 29.878906 53.28125 29.710938 Z M 53.28125 29.710938 "/>
<path style=" stroke:none;fill-rule:evenodd;fill:rgb(97.647059%,52.54902%,38.823529%);fill-opacity:1;" d="M 52.621094 28.539062 C 52.585938 28.378906 52.691406 28.222656 52.859375 28.195312 C 52.9375 28.183594 53.019531 28.203125 53.089844 28.25 C 53.15625 28.296875 53.207031 28.363281 53.222656 28.441406 C 53.257812 28.605469 53.148438 28.757812 52.984375 28.785156 C 52.816406 28.8125 52.652344 28.703125 52.621094 28.539062 Z M 52.621094 28.539062 "/>
<path style=" stroke:none;fill-rule:evenodd;fill:rgb(97.647059%,52.54902%,38.823529%);fill-opacity:1;" d="M 54.480469 28.605469 C 54.445312 28.441406 54.550781 28.289062 54.71875 28.261719 C 54.796875 28.25 54.882812 28.269531 54.949219 28.316406 C 55.019531 28.359375 55.066406 28.429688 55.082031 28.507812 C 55.117188 28.671875 55.007812 28.824219 54.84375 28.851562 C 54.675781 28.878906 54.515625 28.769531 54.480469 28.605469 Z M 54.480469 28.605469 "/>
<path style=" stroke:none;fill-rule:evenodd;fill:rgb(97.647059%,52.54902%,38.823529%);fill-opacity:1;" d="M 50.964844 27.738281 C 50.929688 27.578125 51.035156 27.421875 51.203125 27.394531 C 51.28125 27.382812 51.367188 27.402344 51.433594 27.449219 C 51.5 27.496094 51.550781 27.5625 51.566406 27.640625 C 51.601562 27.804688 51.492188 27.957031 51.328125 27.984375 C 51.160156 28.011719 50.996094 27.902344 50.964844 27.738281 Z M 50.964844 27.738281 "/>
<path style=" stroke:none;fill-rule:evenodd;fill:rgb(97.647059%,52.54902%,38.823529%);fill-opacity:1;" d="M 53.09375 29.378906 C 53.078125 29.292969 53.132812 29.210938 53.21875 29.199219 C 53.257812 29.191406 53.300781 29.199219 53.335938 29.226562 C 53.375 29.25 53.398438 29.289062 53.40625 29.328125 C 53.425781 29.414062 53.371094 29.496094 53.285156 29.507812 C 53.199219 29.523438 53.113281 29.464844 53.09375 29.378906 Z M 53.09375 29.378906 "/>
<path style=" stroke:none;fill-rule:evenodd;fill:rgb(97.647059%,52.54902%,38.823529%);fill-opacity:1;" d="M 51.402344 28.183594 C 51.382812 28.097656 51.4375 28.015625 51.523438 28.003906 C 51.566406 27.996094 51.609375 28.003906 51.644531 28.03125 C 51.679688 28.054688 51.703125 28.09375 51.710938 28.132812 C 51.730469 28.21875 51.675781 28.300781 51.589844 28.3125 C 51.503906 28.328125 51.417969 28.269531 51.402344 28.183594 Z M 51.402344 28.183594 "/>
<path style=" stroke:none;fill-rule:evenodd;fill:rgb(97.647059%,52.54902%,38.823529%);fill-opacity:1;" d="M 52.25 27.464844 C 52.234375 27.378906 52.289062 27.296875 52.375 27.28125 C 52.414062 27.277344 52.457031 27.285156 52.492188 27.308594 C 52.527344 27.335938 52.554688 27.371094 52.5625 27.414062 C 52.582031 27.5 52.527344 27.582031 52.441406 27.59375 C 52.355469 27.609375 52.269531 27.550781 52.25 27.464844 Z M 52.25 27.464844 "/>
<path style=" stroke:none;fill-rule:evenodd;fill:rgb(97.647059%,52.54902%,38.823529%);fill-opacity:1;" d="M 53.757812 27.503906 C 53.742188 27.417969 53.796875 27.335938 53.882812 27.324219 C 53.921875 27.316406 53.964844 27.324219 54 27.351562 C 54.035156 27.375 54.0625 27.410156 54.070312 27.453125 C 54.089844 27.539062 54.035156 27.621094 53.949219 27.632812 C 53.863281 27.648438 53.777344 27.589844 53.757812 27.503906 Z M 53.757812 27.503906 "/>
<path style=" stroke:none;fill-rule:evenodd;fill:rgb(97.647059%,52.54902%,38.823529%);fill-opacity:1;" d="M 53.070312 30.222656 C 53.085938 30.179688 53.128906 30.160156 53.171875 30.171875 C 53.191406 30.179688 53.207031 30.195312 53.214844 30.214844 C 53.222656 30.230469 53.226562 30.253906 53.21875 30.273438 C 53.203125 30.3125 53.160156 30.335938 53.117188 30.320312 C 53.078125 30.308594 53.054688 30.261719 53.070312 30.222656 Z M 53.070312 30.222656 "/>
<path style=" stroke:none;fill-rule:evenodd;fill:rgb(97.647059%,52.54902%,38.823529%);fill-opacity:1;" d="M 52.671875 29.613281 C 52.6875 29.570312 52.730469 29.550781 52.773438 29.566406 C 52.792969 29.570312 52.808594 29.585938 52.816406 29.605469 C 52.828125 29.621094 52.828125 29.644531 52.820312 29.664062 C 52.804688 29.703125 52.761719 29.726562 52.71875 29.710938 C 52.679688 29.699219 52.660156 29.652344 52.671875 29.613281 Z M 52.671875 29.613281 "/>
<path style=" stroke:none;fill-rule:evenodd;fill:rgb(97.647059%,52.54902%,38.823529%);fill-opacity:1;" d="M 54.21875 27.582031 C 54.230469 27.542969 54.277344 27.519531 54.316406 27.535156 C 54.335938 27.542969 54.351562 27.558594 54.363281 27.574219 C 54.371094 27.59375 54.371094 27.617188 54.363281 27.636719 C 54.351562 27.675781 54.304688 27.695312 54.265625 27.683594 C 54.222656 27.667969 54.203125 27.625 54.21875 27.582031 Z M 54.21875 27.582031 "/>
<path style=" stroke:none;fill-rule:evenodd;fill:rgb(97.647059%,52.54902%,38.823529%);fill-opacity:1;" d="M 53.011719 30.265625 C 53.023438 30.222656 53.070312 30.203125 53.109375 30.214844 C 53.128906 30.222656 53.144531 30.238281 53.15625 30.253906 C 53.164062 30.273438 53.164062 30.296875 53.15625 30.316406 C 53.144531 30.355469 53.097656 30.378906 53.058594 30.363281 C 53.015625 30.347656 52.996094 30.304688 53.011719 30.265625 Z M 53.011719 30.265625 "/>
<path style=" stroke:none;fill-rule:evenodd;fill:rgb(97.647059%,52.54902%,38.823529%);fill-opacity:1;" d="M 51.253906 29.289062 C 51.265625 29.246094 51.3125 29.226562 51.351562 29.238281 C 51.371094 29.246094 51.386719 29.261719 51.398438 29.277344 C 51.40625 29.296875 51.40625 29.320312 51.402344 29.339844 C 51.386719 29.378906 51.339844 29.402344 51.300781 29.386719 C 51.261719 29.371094 51.238281 29.328125 51.253906 29.289062 Z M 51.253906 29.289062 "/>
<path style=" stroke:none;fill-rule:evenodd;fill:rgb(97.647059%,52.54902%,38.823529%);fill-opacity:1;" d="M 54.019531 27.105469 C 54.03125 27.066406 54.078125 27.042969 54.117188 27.058594 C 54.136719 27.0625 54.152344 27.078125 54.164062 27.097656 C 54.171875 27.117188 54.171875 27.136719 54.167969 27.15625 C 54.152344 27.199219 54.105469 27.21875 54.066406 27.203125 C 54.023438 27.191406 54.003906 27.144531 54.019531 27.105469 Z M 54.019531 27.105469 "/>
<path style=" stroke:none;fill-rule:evenodd;fill:rgb(97.647059%,52.54902%,38.823529%);fill-opacity:1;" d="M 54.65625 25.847656 C 54.671875 25.804688 54.714844 25.785156 54.753906 25.796875 C 54.773438 25.804688 54.792969 25.820312 54.800781 25.835938 C 54.808594 25.855469 54.808594 25.878906 54.804688 25.898438 C 54.789062 25.9375 54.746094 25.960938 54.703125 25.945312 C 54.664062 25.929688 54.640625 25.886719 54.65625 25.847656 Z M 54.65625 25.847656 "/>
<path style=" stroke:none;fill-rule:evenodd;fill:rgb(97.647059%,52.54902%,38.823529%);fill-opacity:1;" d="M 53.183594 26.105469 C 53.144531 26.082031 53.132812 26.035156 53.15625 26 C 53.167969 25.984375 53.183594 25.972656 53.207031 25.96875 C 53.226562 25.96875 53.25 25.972656 53.265625 25.984375 C 53.304688 26.007812 53.320312 26.054688 53.296875 26.089844 C 53.273438 26.121094 53.222656 26.128906 53.183594 26.105469 Z M 53.183594 26.105469 "/>
<path style=" stroke:none;fill-rule:evenodd;fill:rgb(97.647059%,52.54902%,38.823529%);fill-opacity:1;" d="M 54.703125 29.171875 C 54.683594 29.085938 54.738281 29.003906 54.824219 28.992188 C 54.867188 28.984375 54.910156 28.996094 54.945312 29.019531 C 54.980469 29.042969 55.003906 29.082031 55.011719 29.121094 C 55.03125 29.207031 54.976562 29.289062 54.890625 29.304688 C 54.804688 29.316406 54.71875 29.257812 54.703125 29.171875 Z M 54.703125 29.171875 "/>
<path style=" stroke:none;fill-rule:evenodd;fill:rgb(97.647059%,52.54902%,38.823529%);fill-opacity:1;" d="M 51.359375 23.96875 C 51.398438 23.851562 51.535156 23.792969 51.65625 23.835938 C 51.71875 23.855469 51.765625 23.898438 51.796875 23.953125 C 51.824219 24.007812 51.828125 24.070312 51.808594 24.125 C 51.765625 24.242188 51.632812 24.300781 51.507812 24.257812 C 51.382812 24.214844 51.316406 24.085938 51.359375 23.96875 Z M 51.359375 23.96875 "/>
<path style="fill-rule:evenodd;fill:rgb(95.294118%,95.294118%,95.294118%);fill-opacity:1;stroke-width:3;stroke-linecap:butt;stroke-linejoin:round;stroke:rgb(40%,40%,40%);stroke-opacity:1;stroke-miterlimit:10;" d="M 113.953735 149.737808 C 115.172788 150.604138 116.91825 151.638145 118.275832 152.169122 C 119.605708 152.700099 120.575409 152.923668 121.93299 152.923668 C 123.318278 152.923668 126.033441 151.135115 126.421321 152.197068 C 126.836908 153.231076 125.25768 156.38899 124.371096 159.183604 C 123.456806 161.978219 125.174563 157.143536 121.018701 168.992701 C 116.862839 180.841865 104.450664 217.98229 99.46363 230.222701 C 94.476596 242.463112 93.72854 241.009912 91.041083 242.463112 C 88.353626 243.888365 84.585644 241.429104 83.338886 238.886005 C 82.092127 236.342906 81.538012 235.280953 83.615943 227.148625 C 85.693874 219.044243 91.816844 201.885311 95.778766 190.119985 C 99.768393 178.326712 105.004779 163.627041 107.526002 156.444882 C 110.047225 149.262723 109.880991 148.144878 110.961515 147.027032 C 112.014333 145.909186 112.734683 148.899423 113.953735 149.737808 Z M 113.953735 149.737808 " transform="matrix(0.140991,0,0,0.139778,0,0.0113873)"/>
<path style=" stroke:none;fill-rule:evenodd;fill:rgb(100%,89.803922%,60%);fill-opacity:1;" d="M 14.222656 28.039062 C 14.511719 27.765625 14.78125 27.472656 15.09375 27.167969 C 15.402344 26.863281 15.992188 26.113281 16.09375 26.207031 C 16.191406 26.304688 15.800781 27.359375 15.6875 27.742188 C 15.578125 28.125 15.503906 28.277344 15.425781 28.503906 C 15.347656 28.734375 15.492188 28.378906 15.214844 29.117188 C 14.9375 29.851562 14.164062 32.128906 13.769531 32.933594 C 13.371094 33.734375 13.167969 33.839844 12.828125 33.929688 C 12.488281 34.019531 11.933594 33.734375 11.722656 33.480469 C 11.515625 33.222656 11.488281 32.929688 11.570312 32.398438 C 11.648438 31.867188 12.058594 30.757812 12.207031 30.296875 C 12.355469 29.835938 12.265625 29.878906 12.460938 29.632812 C 12.652344 29.382812 13.070312 29.074219 13.363281 28.808594 C 13.65625 28.542969 13.933594 28.3125 14.222656 28.039062 Z M 14.222656 28.039062 "/>
<path style=" stroke:none;fill-rule:evenodd;fill:rgb(76.078431%,48.235294%,62.745098%);fill-opacity:1;" d="M 14.175781 28.410156 C 14.390625 28.304688 14.601562 28.453125 14.640625 28.734375 C 14.679688 29.019531 14.535156 29.332031 14.316406 29.433594 C 14.097656 29.535156 13.890625 29.386719 13.851562 29.105469 C 13.8125 28.824219 13.957031 28.511719 14.175781 28.410156 Z M 14.175781 28.410156 "/>
<path style=" stroke:none;fill-rule:evenodd;fill:rgb(76.078431%,48.235294%,62.745098%);fill-opacity:1;" d="M 13.859375 28.957031 C 14.074219 28.855469 14.285156 29 14.324219 29.285156 C 14.363281 29.566406 14.21875 29.878906 14 29.980469 C 13.785156 30.082031 13.574219 29.9375 13.535156 29.652344 C 13.496094 29.371094 13.640625 29.058594 13.859375 28.957031 Z M 13.859375 28.957031 "/>
<path style=" stroke:none;fill-rule:evenodd;fill:rgb(76.078431%,48.235294%,62.745098%);fill-opacity:1;" d="M 14.316406 29.214844 C 14.441406 29.191406 14.546875 29.3125 14.554688 29.476562 C 14.558594 29.644531 14.464844 29.796875 14.339844 29.816406 C 14.214844 29.835938 14.109375 29.71875 14.101562 29.550781 C 14.097656 29.386719 14.195312 29.234375 14.316406 29.214844 Z M 14.316406 29.214844 "/>
<path style=" stroke:none;fill-rule:evenodd;fill:rgb(76.078431%,48.235294%,62.745098%);fill-opacity:1;" d="M 13.519531 28.96875 C 13.621094 28.921875 13.71875 29.007812 13.742188 29.15625 C 13.761719 29.308594 13.699219 29.46875 13.597656 29.519531 C 13.496094 29.566406 13.394531 29.480469 13.375 29.328125 C 13.355469 29.179688 13.417969 29.015625 13.519531 28.96875 Z M 13.519531 28.96875 "/>
<path style=" stroke:none;fill-rule:evenodd;fill:rgb(76.078431%,48.235294%,62.745098%);fill-opacity:1;" d="M 12.925781 29.410156 C 13.003906 29.1875 13.214844 29.050781 13.394531 29.113281 C 13.480469 29.140625 13.550781 29.210938 13.585938 29.308594 C 13.621094 29.40625 13.621094 29.519531 13.582031 29.628906 C 13.503906 29.855469 13.296875 29.988281 13.113281 29.929688 C 12.933594 29.867188 12.847656 29.636719 12.925781 29.410156 Z M 12.925781 29.410156 "/>
<path style=" stroke:none;fill-rule:evenodd;fill:rgb(76.078431%,48.235294%,62.745098%);fill-opacity:1;" d="M 15.027344 28.578125 C 14.996094 28.726562 14.867188 28.839844 14.746094 28.824219 C 14.683594 28.820312 14.636719 28.785156 14.605469 28.730469 C 14.574219 28.671875 14.566406 28.601562 14.582031 28.53125 C 14.613281 28.378906 14.742188 28.269531 14.863281 28.28125 C 14.988281 28.292969 15.0625 28.425781 15.027344 28.578125 Z M 15.027344 28.578125 "/>
<path style=" stroke:none;fill-rule:evenodd;fill:rgb(76.078431%,48.235294%,62.745098%);fill-opacity:1;" d="M 14.921875 28.304688 C 14.886719 28.457031 14.761719 28.566406 14.636719 28.554688 C 14.578125 28.546875 14.527344 28.511719 14.496094 28.457031 C 14.464844 28.402344 14.457031 28.332031 14.472656 28.257812 C 14.503906 28.109375 14.632812 27.996094 14.757812 28.011719 C 14.878906 28.023438 14.953125 28.15625 14.921875 28.304688 Z M 14.921875 28.304688 "/>
<path style=" stroke:none;fill-rule:evenodd;fill:rgb(76.078431%,48.235294%,62.745098%);fill-opacity:1;" d="M 14.667969 28.558594 C 14.632812 28.640625 14.550781 28.691406 14.484375 28.671875 C 14.453125 28.664062 14.425781 28.640625 14.414062 28.605469 C 14.40625 28.570312 14.40625 28.53125 14.421875 28.492188 C 14.457031 28.410156 14.539062 28.359375 14.605469 28.378906 C 14.671875 28.398438 14.699219 28.480469 14.667969 28.558594 Z M 14.667969 28.558594 "/>
<path style=" stroke:none;fill-rule:evenodd;fill:rgb(76.078431%,48.235294%,62.745098%);fill-opacity:1;" d="M 15.027344 28.089844 C 15.011719 28.160156 14.949219 28.210938 14.882812 28.203125 C 14.847656 28.203125 14.820312 28.183594 14.804688 28.160156 C 14.789062 28.132812 14.78125 28.097656 14.789062 28.066406 C 14.804688 27.996094 14.871094 27.945312 14.9375 27.953125 C 15.003906 27.957031 15.042969 28.019531 15.027344 28.089844 Z M 15.027344 28.089844 "/>
<path style=" stroke:none;fill-rule:evenodd;fill:rgb(76.078431%,48.235294%,62.745098%);fill-opacity:1;" d="M 13.066406 29.441406 C 13.226562 29.367188 13.378906 29.453125 13.40625 29.636719 C 13.417969 29.726562 13.398438 29.824219 13.351562 29.910156 C 13.304688 30 13.234375 30.070312 13.15625 30.105469 C 12.996094 30.183594 12.84375 30.097656 12.816406 29.914062 C 12.792969 29.730469 12.902344 29.519531 13.066406 29.441406 Z M 13.066406 29.441406 "/>
<path style=" stroke:none;fill-rule:evenodd;fill:rgb(76.078431%,48.235294%,62.745098%);fill-opacity:1;" d="M 12.824219 29.816406 C 12.988281 29.738281 13.140625 29.824219 13.164062 30.007812 C 13.175781 30.097656 13.15625 30.195312 13.109375 30.285156 C 13.066406 30.371094 12.996094 30.441406 12.917969 30.480469 C 12.753906 30.554688 12.601562 30.46875 12.578125 30.285156 C 12.550781 30.101562 12.664062 29.890625 12.824219 29.816406 Z M 12.824219 29.816406 "/>
<path style=" stroke:none;fill-rule:evenodd;fill:rgb(76.078431%,48.235294%,62.745098%);fill-opacity:1;" d="M 13.160156 29.964844 C 13.253906 29.945312 13.332031 30.015625 13.332031 30.125 C 13.335938 30.234375 13.261719 30.339844 13.167969 30.359375 C 13.074219 30.375 13 30.304688 12.996094 30.195312 C 12.996094 30.085938 13.070312 29.980469 13.160156 29.964844 Z M 13.160156 29.964844 "/>
<path style=" stroke:none;fill-rule:evenodd;fill:rgb(76.078431%,48.235294%,62.745098%);fill-opacity:1;" d="M 12.574219 29.839844 C 12.648438 29.804688 12.722656 29.855469 12.734375 29.953125 C 12.75 30.050781 12.699219 30.160156 12.621094 30.195312 C 12.546875 30.230469 12.476562 30.179688 12.460938 30.082031 C 12.449219 29.984375 12.496094 29.875 12.574219 29.839844 Z M 12.574219 29.839844 "/>
<path style=" stroke:none;fill-rule:evenodd;fill:rgb(76.078431%,48.235294%,62.745098%);fill-opacity:1;" d="M 12.261719 30.507812 C 12.3125 30.355469 12.449219 30.257812 12.5625 30.296875 C 12.617188 30.316406 12.660156 30.363281 12.679688 30.425781 C 12.703125 30.492188 12.699219 30.570312 12.675781 30.644531 C 12.621094 30.800781 12.484375 30.894531 12.371094 30.855469 C 12.257812 30.816406 12.207031 30.664062 12.261719 30.507812 Z M 12.261719 30.507812 "/>
<path style=" stroke:none;fill-rule:evenodd;fill:rgb(76.078431%,48.235294%,62.745098%);fill-opacity:1;" d="M 14.871094 27.644531 C 14.914062 27.519531 15.019531 27.445312 15.113281 27.472656 C 15.15625 27.488281 15.191406 27.527344 15.207031 27.578125 C 15.222656 27.628906 15.222656 27.695312 15.199219 27.753906 C 15.15625 27.875 15.050781 27.953125 14.957031 27.921875 C 14.867188 27.890625 14.828125 27.765625 14.871094 27.644531 Z M 14.871094 27.644531 "/>
<path style=" stroke:none;fill-rule:evenodd;fill:rgb(76.078431%,48.235294%,62.745098%);fill-opacity:1;" d="M 15.097656 27.878906 C 15.148438 27.726562 15.285156 27.628906 15.398438 27.667969 C 15.453125 27.6875 15.496094 27.734375 15.515625 27.796875 C 15.539062 27.863281 15.535156 27.941406 15.507812 28.015625 C 15.457031 28.171875 15.320312 28.265625 15.207031 28.226562 C 15.09375 28.1875 15.042969 28.03125 15.097656 27.878906 Z M 15.097656 27.878906 "/>
<path style=" stroke:none;fill-rule:evenodd;fill:rgb(76.078431%,48.235294%,62.745098%);fill-opacity:1;" d="M 15.183594 27.417969 C 15.226562 27.296875 15.332031 27.21875 15.425781 27.25 C 15.46875 27.265625 15.503906 27.300781 15.519531 27.355469 C 15.535156 27.40625 15.535156 27.46875 15.511719 27.527344 C 15.472656 27.652344 15.363281 27.730469 15.269531 27.699219 C 15.179688 27.667969 15.140625 27.542969 15.183594 27.417969 Z M 15.183594 27.417969 "/>
<path style=" stroke:none;fill-rule:evenodd;fill:rgb(76.078431%,48.235294%,62.745098%);fill-opacity:1;" d="M 15.480469 27.136719 C 15.503906 27.070312 15.5625 27.03125 15.613281 27.046875 C 15.636719 27.054688 15.65625 27.074219 15.664062 27.105469 C 15.675781 27.132812 15.671875 27.164062 15.664062 27.195312 C 15.640625 27.261719 15.582031 27.300781 15.53125 27.285156 C 15.480469 27.269531 15.457031 27.203125 15.480469 27.136719 Z M 15.480469 27.136719 "/>
<path style=" stroke:none;fill-rule:evenodd;fill:rgb(76.078431%,48.235294%,62.745098%);fill-opacity:1;" d="M 14.632812 29.253906 C 14.65625 29.1875 14.714844 29.148438 14.765625 29.164062 C 14.789062 29.171875 14.808594 29.191406 14.816406 29.21875 C 14.828125 29.246094 14.828125 29.28125 14.816406 29.3125 C 14.792969 29.378906 14.734375 29.417969 14.683594 29.398438 C 14.632812 29.382812 14.613281 29.316406 14.632812 29.253906 Z M 14.632812 29.253906 "/>
<path style=" stroke:none;fill-rule:evenodd;fill:rgb(76.078431%,48.235294%,62.745098%);fill-opacity:1;" d="M 13.382812 29.976562 C 13.40625 29.910156 13.464844 29.871094 13.515625 29.886719 C 13.539062 29.894531 13.558594 29.914062 13.566406 29.941406 C 13.578125 29.96875 13.578125 30.003906 13.566406 30.035156 C 13.542969 30.101562 13.484375 30.140625 13.433594 30.125 C 13.382812 30.105469 13.363281 30.039062 13.382812 29.976562 Z M 13.382812 29.976562 "/>
<path style=" stroke:none;fill-rule:evenodd;fill:rgb(76.078431%,48.235294%,62.745098%);fill-opacity:1;" d="M 13.449219 29.789062 C 13.472656 29.722656 13.550781 29.691406 13.621094 29.714844 C 13.695312 29.738281 13.738281 29.8125 13.714844 29.875 C 13.691406 29.941406 13.613281 29.976562 13.539062 29.949219 C 13.46875 29.925781 13.425781 29.855469 13.449219 29.789062 Z M 13.449219 29.789062 "/>
<path style=" stroke:none;fill-rule:evenodd;fill:rgb(76.078431%,48.235294%,62.745098%);fill-opacity:1;" d="M 13.933594 29.949219 C 13.957031 29.882812 14.015625 29.84375 14.066406 29.859375 C 14.089844 29.867188 14.109375 29.890625 14.117188 29.917969 C 14.128906 29.945312 14.125 29.976562 14.117188 30.007812 C 14.09375 30.074219 14.035156 30.113281 13.984375 30.097656 C 13.933594 30.082031 13.914062 30.015625 13.933594 29.949219 Z M 13.933594 29.949219 "/>
<path style=" stroke:none;fill-rule:evenodd;fill:rgb(76.078431%,48.235294%,62.745098%);fill-opacity:1;" d="M 12.652344 30.578125 C 12.675781 30.511719 12.734375 30.472656 12.785156 30.488281 C 12.808594 30.496094 12.828125 30.515625 12.835938 30.542969 C 12.847656 30.574219 12.84375 30.605469 12.835938 30.636719 C 12.8125 30.703125 12.753906 30.742188 12.703125 30.726562 C 12.652344 30.707031 12.628906 30.640625 12.652344 30.578125 Z M 12.652344 30.578125 "/>
<path style=" stroke:none;fill-rule:evenodd;fill:rgb(76.078431%,48.235294%,62.745098%);fill-opacity:1;" d="M 12.382812 30.773438 C 12.40625 30.707031 12.464844 30.667969 12.515625 30.683594 C 12.539062 30.691406 12.558594 30.710938 12.566406 30.738281 C 12.578125 30.769531 12.574219 30.800781 12.566406 30.832031 C 12.542969 30.898438 12.484375 30.9375 12.433594 30.921875 C 12.382812 30.90625 12.363281 30.839844 12.382812 30.773438 Z M 12.382812 30.773438 "/>
<path style=" stroke:none;fill-rule:evenodd;fill:rgb(76.078431%,48.235294%,62.745098%);fill-opacity:1;" d="M 12.070312 30.75 C 12.09375 30.6875 12.152344 30.648438 12.199219 30.664062 C 12.222656 30.671875 12.242188 30.691406 12.253906 30.71875 C 12.261719 30.746094 12.261719 30.78125 12.25 30.8125 C 12.226562 30.875 12.167969 30.917969 12.117188 30.898438 C 12.070312 30.882812 12.046875 30.816406 12.070312 30.75 Z M 12.070312 30.75 "/>
<path style="fill:none;stroke-width:2;stroke-linecap:round;stroke-linejoin:round;stroke:rgb(40%,40%,40%);stroke-opacity:1;stroke-miterlimit:10;" d="M 95.113828 201.745581 L 94.393478 203.645918 L 95.695648 205.043226 L 97.801285 203.56208 L 98.54934 201.298442 L 98.022931 199.845243 L 96.720761 200.208543 Z M 95.113828 201.745581 " transform="matrix(0.140991,0,0,0.139778,0,0.0113873)"/>
<path style="fill-rule:evenodd;fill:rgb(81.176471%,88.627451%,95.294118%);fill-opacity:1;stroke-width:2;stroke-linecap:round;stroke-linejoin:round;stroke:rgb(40%,40%,40%);stroke-opacity:1;stroke-miterlimit:10;" d="M 97.745874 199.789351 L 138.390204 133.05396 " transform="matrix(0.140991,0,0,0.139778,0,0.0113873)"/>
<path style="fill:none;stroke-width:3;stroke-linecap:butt;stroke-linejoin:round;stroke:rgb(40%,40%,40%);stroke-opacity:1;stroke-miterlimit:10;" d="M 113.953735 150.827707 C 115.172788 151.694038 116.945956 152.728045 118.275832 153.259022 C 119.605708 153.789999 120.575409 153.985622 121.960696 153.985622 C 123.318278 153.985622 126.033441 152.225014 126.421321 153.259022 C 126.836908 154.320975 125.285386 157.450943 124.371096 160.273504 C 123.484512 163.068118 125.174563 158.233435 121.018701 170.0826 C 116.890545 181.903819 104.47837 219.07219 99.491336 231.3126 C 94.504301 243.553011 93.756246 242.099812 91.068789 243.553011 C 88.381331 244.978265 84.61335 242.519004 83.366591 239.975905 C 82.119833 237.432806 81.565718 236.370852 83.643649 228.238525 C 85.72158 220.106197 91.816844 202.975211 95.806471 191.181938 C 99.796099 179.416612 105.004779 164.716941 107.526002 157.534782 C 110.074931 150.352623 109.880991 149.206831 110.961515 148.088985 C 112.014333 146.97114 112.734683 149.961377 113.953735 150.827707 Z M 113.953735 150.827707 " transform="matrix(0.140991,0,0,0.139778,0,0.0113873)"/>
<path style=" stroke:none;fill-rule:evenodd;fill:rgb(62.352941%,42.745098%,16.470588%);fill-opacity:1;" d="M 17.171875 29.027344 C 17.332031 28.785156 17.199219 27.875 17.109375 27.324219 C 17.023438 26.777344 16.855469 26.039062 16.648438 25.734375 C 16.445312 25.429688 16.03125 25.296875 15.878906 25.488281 C 15.730469 25.679688 15.710938 26.335938 15.757812 26.882812 C 15.800781 27.429688 15.910156 28.410156 16.144531 28.769531 C 16.378906 29.125 17.011719 29.265625 17.171875 29.027344 Z M 17.171875 29.027344 "/>
</g>
</svg>
