<?xml version="1.0" encoding="UTF-8"?>
<svg xmlns="http://www.w3.org/2000/svg" xmlns:xlink="http://www.w3.org/1999/xlink" width="65px" height="65px" viewBox="0 0 65 65" version="1.1">
<g id="surface1">
<path style=" stroke:none;fill-rule:nonzero;fill:rgb(77.254902%,14.901961%,86.666667%);fill-opacity:1;" d="M 32.324219 17.582031 C 31.941406 11.152344 36.90625 5.628906 43.417969 5.242188 C 46.542969 5.058594 49.617188 6.109375 51.957031 8.160156 C 54.296875 10.214844 55.714844 13.101562 55.902344 16.191406 C 56.285156 22.621094 51.320312 28.144531 44.808594 28.527344 C 38.296875 28.910156 32.710938 24.011719 32.324219 17.582031 Z M 32.324219 17.582031 "/>
<path style=" stroke:none;fill-rule:nonzero;fill:rgb(77.254902%,14.901961%,86.666667%);fill-opacity:1;" d="M 8.230469 17.863281 C 7.738281 9.644531 14.742188 2.546875 23.871094 2.007812 C 33.003906 1.46875 40.800781 7.691406 41.292969 15.910156 C 41.785156 24.128906 34.78125 31.226562 25.648438 31.765625 C 16.519531 32.304688 8.71875 26.078125 8.230469 17.863281 Z M 8.230469 17.863281 "/>
<path style=" stroke:none;fill-rule:nonzero;fill:rgb(77.254902%,14.901961%,86.666667%);fill-opacity:1;" d="M 1.453125 34.390625 C 1.070312 27.960938 6.035156 22.4375 12.546875 22.054688 C 15.671875 21.867188 18.742188 22.917969 21.082031 24.96875 C 23.425781 27.023438 24.84375 29.910156 25.027344 33 C 25.410156 39.429688 20.445312 44.953125 13.9375 45.335938 C 7.425781 45.722656 1.835938 40.820312 1.453125 34.390625 Z M 1.453125 34.390625 "/>
<path style=" stroke:none;fill-rule:nonzero;fill:rgb(77.254902%,14.901961%,86.666667%);fill-opacity:1;" d="M 30.265625 48.875 C 29.832031 41.671875 35.683594 35.464844 43.332031 35.011719 C 47.007812 34.796875 50.613281 35.960938 53.355469 38.253906 C 56.097656 40.546875 57.753906 43.78125 57.960938 47.238281 C 58.390625 54.445312 52.539062 60.652344 44.890625 61.101562 C 37.242188 61.554688 30.695312 56.082031 30.265625 48.875 Z M 30.265625 48.875 "/>
<path style=" stroke:none;fill-rule:nonzero;fill:rgb(77.254902%,14.901961%,86.666667%);fill-opacity:1;" d="M 39.53125 31.613281 C 39.148438 25.183594 44.113281 19.660156 50.625 19.273438 C 53.75 19.089844 56.820312 20.140625 59.164062 22.191406 C 61.503906 24.246094 62.921875 27.132812 63.105469 30.21875 C 63.492188 36.648438 58.523438 42.171875 52.015625 42.558594 C 45.503906 42.941406 39.917969 38.042969 39.53125 31.613281 Z M 39.53125 31.613281 "/>
<path style=" stroke:none;fill-rule:nonzero;fill:rgb(77.254902%,14.901961%,86.666667%);fill-opacity:1;" d="M 15.21875 51.640625 C 14.777344 44.265625 20.585938 37.925781 28.195312 37.476562 C 31.851562 37.261719 35.4375 38.460938 38.171875 40.8125 C 40.90625 43.164062 42.558594 46.472656 42.769531 50.015625 C 43.210938 57.390625 37.402344 63.730469 29.792969 64.179688 C 22.183594 64.628906 15.65625 59.015625 15.21875 51.640625 Z M 15.21875 51.640625 "/>
<path style=" stroke:none;fill-rule:nonzero;fill:rgb(77.254902%,14.901961%,86.666667%);fill-opacity:1;" d="M 21.195312 33.742188 C 20.703125 25.523438 27.707031 18.425781 36.839844 17.886719 C 45.96875 17.347656 53.769531 23.574219 54.257812 31.789062 C 54.75 40.007812 47.746094 47.105469 38.617188 47.644531 C 29.484375 48.183594 21.6875 41.960938 21.195312 33.742188 Z M 21.195312 33.742188 "/>
<path style=" stroke:none;fill-rule:nonzero;fill:rgb(100%,96.078431%,31.764706%);fill-opacity:1;" d="M 33.457031 27.449219 L 35.703125 25.492188 L 40.84375 25.09375 L 44.5 27.664062 L 45.816406 30.351562 L 45.710938 32.855469 L 46.105469 35.855469 L 48.570312 38.09375 L 45.238281 37.214844 L 47.503906 40.117188 L 43.640625 38.085938 L 43.488281 39.671875 L 39.441406 34.101562 L 39.09375 33.082031 L 38.855469 31.898438 L 38.199219 28.386719 "/>
<path style=" stroke:none;fill-rule:nonzero;fill:rgb(0%,0%,0%);fill-opacity:1;" d="M 33.75 54.972656 C 33.234375 55.429688 33.464844 56.496094 34.28125 56.804688 C 35.097656 57.109375 37.671875 56.960938 38.644531 56.816406 C 39.613281 56.667969 39.953125 56.285156 40.113281 55.929688 C 40.273438 55.574219 40.054688 54.988281 39.601562 54.675781 C 39.144531 54.363281 38.355469 54.007812 37.378906 54.058594 C 36.40625 54.109375 34.265625 54.515625 33.75 54.972656 Z M 33.75 54.972656 "/>
<path style=" stroke:none;fill-rule:nonzero;fill:rgb(100%,100%,100%);fill-opacity:1;" d="M 34.09375 54.53125 C 33.628906 54.820312 33.609375 55.492188 34.152344 55.675781 C 34.695312 55.863281 36.617188 55.75 37.355469 55.652344 C 38.097656 55.550781 38.414062 55.308594 38.59375 55.082031 C 38.777344 54.859375 38.722656 54.492188 38.441406 54.300781 C 38.164062 54.105469 37.648438 53.890625 36.921875 53.929688 C 36.199219 53.964844 34.554688 54.238281 34.09375 54.53125 Z M 34.09375 54.53125 "/>
<path style=" stroke:none;fill-rule:nonzero;fill:rgb(0%,0%,0%);fill-opacity:1;" d="M 30.386719 54.070312 C 30.976562 54.417969 30.949219 55.507812 30.214844 55.964844 C 29.480469 56.421875 26.949219 56.773438 25.976562 56.820312 C 25.003906 56.863281 24.601562 56.554688 24.382812 56.234375 C 24.160156 55.917969 24.261719 55.300781 24.644531 54.90625 C 25.03125 54.515625 25.730469 54.015625 26.6875 53.875 C 27.644531 53.734375 29.800781 53.722656 30.386719 54.070312 Z M 30.386719 54.070312 "/>
<path style=" stroke:none;fill-rule:nonzero;fill:rgb(100%,100%,100%);fill-opacity:1;" d="M 29.972656 53.703125 C 30.476562 53.898438 30.625 54.550781 30.128906 54.835938 C 29.636719 55.125 27.75 55.382812 27.007812 55.429688 C 26.269531 55.476562 25.917969 55.300781 25.699219 55.113281 C 25.480469 54.925781 25.464844 54.558594 25.699219 54.316406 C 25.9375 54.074219 26.398438 53.761719 27.109375 53.660156 C 27.820312 53.554688 29.472656 53.507812 29.972656 53.703125 Z M 29.972656 53.703125 "/>
<path style=" stroke:none;fill-rule:nonzero;fill:rgb(95.294118%,84.313725%,62.352941%);fill-opacity:1;" d="M 48.085938 28.070312 C 48.179688 27.757812 48.914062 27.078125 49.355469 26.671875 C 49.800781 26.265625 50.421875 25.757812 50.746094 25.640625 C 51.070312 25.519531 51.375 25.691406 51.308594 25.957031 C 51.242188 26.21875 50.773438 26.789062 50.351562 27.222656 C 49.933594 27.65625 49.164062 28.414062 48.785156 28.554688 C 48.40625 28.695312 47.992188 28.386719 48.085938 28.070312 Z M 48.085938 28.070312 "/>
<path style=" stroke:none;fill-rule:nonzero;fill:rgb(95.294118%,84.313725%,62.352941%);fill-opacity:1;" d="M 48.757812 28.175781 C 48.921875 27.867188 49.757812 27.316406 50.261719 26.992188 C 50.765625 26.667969 51.457031 26.277344 51.785156 26.226562 C 52.113281 26.175781 52.347656 26.425781 52.226562 26.691406 C 52.101562 26.953125 51.535156 27.445312 51.042969 27.804688 C 50.554688 28.164062 49.664062 28.785156 49.285156 28.847656 C 48.90625 28.90625 48.597656 28.484375 48.757812 28.175781 Z M 48.757812 28.175781 "/>
<path style=" stroke:none;fill-rule:nonzero;fill:rgb(95.294118%,84.313725%,62.352941%);fill-opacity:1;" d="M 48.988281 28.585938 C 49.207031 28.316406 50.101562 27.921875 50.640625 27.6875 C 51.179688 27.457031 51.90625 27.1875 52.214844 27.1875 C 52.527344 27.191406 52.6875 27.464844 52.511719 27.699219 C 52.335938 27.929688 51.699219 28.316406 51.167969 28.582031 C 50.632812 28.851562 49.671875 29.308594 49.308594 29.308594 C 48.945312 29.308594 48.765625 28.855469 48.988281 28.585938 Z M 48.988281 28.585938 "/>
<path style=" stroke:none;fill-rule:nonzero;fill:rgb(95.294118%,84.313725%,62.352941%);fill-opacity:1;" d="M 48.835938 28.671875 C 49.128906 28.472656 50.03125 28.382812 50.570312 28.335938 C 51.109375 28.289062 51.820312 28.273438 52.074219 28.386719 C 52.332031 28.5 52.351562 28.84375 52.113281 29.019531 C 51.871094 29.195312 51.191406 29.367188 50.640625 29.453125 C 50.089844 29.535156 49.109375 29.664062 48.8125 29.535156 C 48.511719 29.40625 48.542969 28.871094 48.835938 28.671875 Z M 48.835938 28.671875 "/>
<path style=" stroke:none;fill-rule:nonzero;fill:rgb(95.294118%,84.313725%,62.352941%);fill-opacity:1;" d="M 48.703125 27.511719 L 49.554688 29.269531 L 46.875 30.898438 L 46.023438 29.144531 Z M 48.703125 27.511719 "/>
<path style=" stroke:none;fill-rule:nonzero;fill:rgb(95.294118%,84.313725%,62.352941%);fill-opacity:1;" d="M 48.460938 28.964844 C 48.261719 28.769531 48.269531 27.941406 48.285156 27.441406 C 48.296875 26.941406 48.367188 26.265625 48.535156 25.964844 C 48.703125 25.667969 49.113281 25.496094 49.296875 25.648438 C 49.476562 25.800781 49.59375 26.382812 49.625 26.878906 C 49.65625 27.371094 49.683594 28.257812 49.492188 28.605469 C 49.296875 28.953125 48.664062 29.160156 48.460938 28.964844 Z M 48.460938 28.964844 "/>
<path style=" stroke:none;fill-rule:nonzero;fill:rgb(95.294118%,84.313725%,62.352941%);fill-opacity:1;" d="M 30.851562 31.59375 L 35.304688 31.59375 L 35.304688 34.398438 L 30.851562 34.398438 Z M 30.851562 31.59375 "/>
<path style=" stroke:none;fill-rule:nonzero;fill:rgb(95.294118%,84.313725%,62.352941%);fill-opacity:1;" d="M 21.347656 21.703125 C 21.347656 16.039062 26.265625 11.445312 32.332031 11.445312 C 35.246094 11.445312 38.039062 12.527344 40.097656 14.449219 C 42.160156 16.375 43.316406 18.980469 43.316406 21.703125 C 43.316406 27.367188 38.398438 31.957031 32.332031 31.957031 C 26.265625 31.957031 21.347656 27.367188 21.347656 21.703125 Z M 21.347656 21.703125 "/>
<path style=" stroke:none;fill-rule:nonzero;fill:rgb(4.313725%,32.54902%,58.039216%);fill-opacity:1;" d="M 36.835938 46.167969 L 36.835938 55.335938 L 33.378906 55.332031 L 33.378906 46.164062 Z M 36.835938 46.167969 "/>
<path style=" stroke:none;fill-rule:nonzero;fill:rgb(4.313725%,32.54902%,58.039216%);fill-opacity:1;" d="M 32.042969 45.839844 L 31.109375 54.960938 L 27.78125 54.621094 L 28.710938 45.5 Z M 32.042969 45.839844 "/>
<path style=" stroke:none;fill-rule:nonzero;fill:rgb(100%,96.078431%,31.764706%);fill-opacity:1;" d="M 22.484375 19.125 L 22.863281 23.265625 L 24.945312 17.246094 L 25.511719 20.253906 L 29.113281 16.304688 L 28.734375 19.125 L 32.523438 15.550781 L 39.71875 18.375 L 38.582031 15.925781 L 42.9375 21.949219 L 42.371094 17.246094 L 36.6875 12.917969 L 30.628906 12.917969 L 24.945312 15.363281 Z M 22.484375 19.125 "/>
<path style="fill-rule:nonzero;fill:rgb(100%,96.078431%,31.764706%);fill-opacity:1;stroke-width:8;stroke-linecap:butt;stroke-linejoin:miter;stroke:rgb(100%,96.078431%,31.764706%);stroke-opacity:1;stroke-miterlimit:8;" d="M 236.761178 98.042308 L 236.2625 84.044231 L 233.242728 80.028846 L 224.7375 76.543269 L 209.749459 78.049038 L 185.258834 88.031731 L 173.262861 97.038462 L 161.737861 110.534615 L 150.240565 135.045192 L 148.744531 154.034615 L 149.686478 165.021154 L 156.390925 182.309615 L 169.827524 196.698077 L 162.153425 178.461538 L 164.065024 180.385577 L 168.857873 190.925962 L 162.264243 168.534615 L 162.264243 134.543269 L 198.252163 102.531731 Z M 236.761178 98.042308 " transform="matrix(0.140998,0,0,0.140086,0,0)"/>
<path style="fill-rule:nonzero;fill:rgb(100%,96.078431%,31.764706%);fill-opacity:1;stroke-width:8;stroke-linecap:butt;stroke-linejoin:miter;stroke:rgb(100%,96.078431%,31.764706%);stroke-opacity:1;stroke-miterlimit:8;" d="M 232.217668 96.843269 L 232.633233 82.594231 L 235.182031 78.523077 L 242.440565 74.953846 L 255.21226 76.4875 L 276.101322 86.665385 L 286.324219 95.839423 L 296.13155 109.586538 L 305.938882 134.543269 L 307.213281 153.895192 L 303.196154 168.869231 L 300.314904 203.418269 L 302.226502 169.817308 L 304.138101 143.9125 L 303.196154 170.793269 L 295.522055 182.309615 L 295.715986 168.646154 L 295.715986 134.041346 L 265.019591 101.444231 Z M 232.217668 96.843269 " transform="matrix(0.140998,0,0,0.140086,0,0)"/>
<path style=" stroke:none;fill-rule:nonzero;fill:rgb(0%,0%,0%);fill-opacity:1;" d="M 34.648438 22.488281 C 34.648438 21.714844 35.296875 21.089844 36.097656 21.089844 C 36.480469 21.089844 36.847656 21.238281 37.117188 21.5 C 37.390625 21.761719 37.542969 22.117188 37.542969 22.488281 C 37.542969 23.261719 36.894531 23.890625 36.097656 23.890625 C 35.296875 23.890625 34.648438 23.261719 34.648438 22.488281 Z M 34.648438 22.488281 "/>
<path style=" stroke:none;fill-rule:nonzero;fill:rgb(100%,100%,100%);fill-opacity:1;" d="M 35.988281 22.488281 C 35.988281 22.199219 36.226562 21.960938 36.519531 21.960938 C 36.660156 21.960938 36.792969 22.019531 36.890625 22.117188 C 36.992188 22.214844 37.046875 22.351562 37.046875 22.488281 C 37.046875 22.78125 36.808594 23.015625 36.519531 23.015625 C 36.226562 23.015625 35.988281 22.78125 35.988281 22.488281 Z M 35.988281 22.488281 "/>
<path style=" stroke:none;fill-rule:nonzero;fill:rgb(0%,0%,0%);fill-opacity:1;" d="M 28.726562 22.488281 C 28.726562 21.714844 29.375 21.089844 30.175781 21.089844 C 30.558594 21.089844 30.925781 21.238281 31.195312 21.5 C 31.46875 21.761719 31.621094 22.117188 31.621094 22.488281 C 31.621094 23.261719 30.972656 23.890625 30.175781 23.890625 C 29.375 23.890625 28.726562 23.261719 28.726562 22.488281 Z M 28.726562 22.488281 "/>
<path style=" stroke:none;fill-rule:nonzero;fill:rgb(100%,100%,100%);fill-opacity:1;" d="M 30.066406 22.488281 C 30.066406 22.199219 30.304688 21.960938 30.597656 21.960938 C 30.734375 21.960938 30.871094 22.019531 30.96875 22.117188 C 31.070312 22.214844 31.125 22.351562 31.125 22.488281 C 31.125 22.78125 30.886719 23.015625 30.597656 23.015625 C 30.304688 23.015625 30.066406 22.78125 30.066406 22.488281 Z M 30.066406 22.488281 "/>
<path style=" stroke:none;fill-rule:nonzero;fill:rgb(86.666667%,70.196078%,45.490196%);fill-opacity:1;" d="M 31.832031 24.519531 L 34.648438 24.574219 L 34.4375 25.160156 L 33.804688 25.640625 L 32.886719 25.640625 L 32.183594 25.320312 Z M 31.832031 24.519531 "/>
<path style=" stroke:none;fill-rule:nonzero;fill:rgb(100%,96.078431%,31.764706%);fill-opacity:1;" d="M 28.050781 21.265625 L 27.691406 20.527344 L 29.226562 19.597656 L 31.730469 19.132812 L 29.429688 20.210938 Z M 28.050781 21.265625 "/>
<path style=" stroke:none;fill-rule:nonzero;fill:rgb(100%,96.078431%,31.764706%);fill-opacity:1;" d="M 38.527344 21.089844 L 38.808594 20.320312 L 37.1875 19.546875 L 34.648438 19.335938 L 37.046875 20.179688 Z M 38.527344 21.089844 "/>
<path style="fill-rule:nonzero;fill:rgb(100%,100%,100%);fill-opacity:1;stroke-width:2;stroke-linecap:butt;stroke-linejoin:round;stroke:rgb(86.666667%,70.196078%,45.490196%);stroke-opacity:1;stroke-miterlimit:10;" d="M 195.204688 196.949038 C 189.109736 200.1 219.556791 212.703846 231.746695 212.0625 C 243.936599 211.449038 274.383654 195.666346 268.288702 193.156731 C 262.19375 190.619231 201.299639 193.798077 195.204688 196.949038 Z M 195.204688 196.949038 " transform="matrix(0.140998,0,0,0.140086,0,0)"/>
<path style=" stroke:none;fill-rule:nonzero;fill:rgb(86.666667%,70.196078%,45.490196%);fill-opacity:1;" d="M 26.386719 25.464844 C 26.386719 25.371094 26.484375 25.292969 26.601562 25.292969 C 26.71875 25.292969 26.8125 25.371094 26.8125 25.464844 C 26.8125 25.558594 26.71875 25.636719 26.601562 25.636719 C 26.484375 25.636719 26.386719 25.558594 26.386719 25.464844 Z M 26.386719 25.464844 "/>
<path style=" stroke:none;fill-rule:nonzero;fill:rgb(86.666667%,70.196078%,45.490196%);fill-opacity:1;" d="M 27.390625 26.21875 C 27.390625 26.121094 27.488281 26.042969 27.605469 26.042969 C 27.722656 26.042969 27.816406 26.121094 27.816406 26.21875 C 27.816406 26.3125 27.722656 26.390625 27.605469 26.390625 C 27.488281 26.390625 27.390625 26.3125 27.390625 26.21875 Z M 27.390625 26.21875 "/>
<path style=" stroke:none;fill-rule:nonzero;fill:rgb(86.666667%,70.196078%,45.490196%);fill-opacity:1;" d="M 28.292969 25.074219 C 28.371094 25.015625 28.496094 25.039062 28.566406 25.125 C 28.640625 25.214844 28.636719 25.332031 28.554688 25.390625 C 28.476562 25.453125 28.351562 25.429688 28.28125 25.339844 C 28.207031 25.253906 28.210938 25.136719 28.292969 25.074219 Z M 28.292969 25.074219 "/>
<path style=" stroke:none;fill-rule:nonzero;fill:rgb(86.666667%,70.196078%,45.490196%);fill-opacity:1;" d="M 29.277344 25.671875 C 29.277344 25.578125 29.371094 25.5 29.488281 25.5 C 29.605469 25.5 29.699219 25.578125 29.699219 25.671875 C 29.699219 25.769531 29.605469 25.84375 29.488281 25.84375 C 29.371094 25.84375 29.277344 25.769531 29.277344 25.671875 Z M 29.277344 25.671875 "/>
<path style=" stroke:none;fill-rule:nonzero;fill:rgb(86.666667%,70.196078%,45.490196%);fill-opacity:1;" d="M 26.964844 24.601562 C 26.964844 24.507812 27.0625 24.429688 27.179688 24.429688 C 27.296875 24.429688 27.390625 24.507812 27.390625 24.601562 C 27.390625 24.699219 27.296875 24.777344 27.179688 24.777344 C 27.0625 24.777344 26.964844 24.699219 26.964844 24.601562 Z M 26.964844 24.601562 "/>
<path style=" stroke:none;fill-rule:nonzero;fill:rgb(86.666667%,70.196078%,45.490196%);fill-opacity:1;" d="M 25.308594 25.941406 C 25.273438 25.851562 25.332031 25.75 25.445312 25.707031 C 25.554688 25.667969 25.671875 25.710938 25.707031 25.800781 C 25.742188 25.890625 25.679688 25.992188 25.570312 26.03125 C 25.460938 26.074219 25.34375 26.03125 25.308594 25.941406 Z M 25.308594 25.941406 "/>
<path style=" stroke:none;fill-rule:nonzero;fill:rgb(86.666667%,70.196078%,45.490196%);fill-opacity:1;" d="M 39.480469 25.191406 C 39.46875 25.285156 39.375 25.351562 39.265625 25.339844 C 39.160156 25.328125 39.082031 25.242188 39.089844 25.148438 C 39.101562 25.050781 39.199219 24.984375 39.304688 24.996094 C 39.414062 25.007812 39.492188 25.097656 39.480469 25.191406 Z M 39.480469 25.191406 "/>
<path style=" stroke:none;fill-rule:nonzero;fill:rgb(86.666667%,70.196078%,45.490196%);fill-opacity:1;" d="M 38.648438 24.339844 C 38.636719 24.433594 38.542969 24.5 38.433594 24.488281 C 38.324219 24.476562 38.246094 24.390625 38.257812 24.292969 C 38.269531 24.199219 38.367188 24.132812 38.472656 24.144531 C 38.582031 24.15625 38.660156 24.242188 38.648438 24.339844 Z M 38.648438 24.339844 "/>
<path style=" stroke:none;fill-rule:nonzero;fill:rgb(86.666667%,70.196078%,45.490196%);fill-opacity:1;" d="M 37.691406 25.378906 C 37.609375 25.429688 37.5 25.390625 37.441406 25.296875 C 37.386719 25.203125 37.40625 25.085938 37.484375 25.035156 C 37.5625 24.984375 37.675781 25.019531 37.730469 25.113281 C 37.789062 25.210938 37.769531 25.328125 37.691406 25.378906 Z M 37.691406 25.378906 "/>
<path style=" stroke:none;fill-rule:nonzero;fill:rgb(86.666667%,70.196078%,45.490196%);fill-opacity:1;" d="M 36.855469 24.679688 C 36.84375 24.777344 36.75 24.84375 36.640625 24.828125 C 36.535156 24.816406 36.457031 24.730469 36.464844 24.636719 C 36.476562 24.539062 36.574219 24.472656 36.679688 24.484375 C 36.789062 24.5 36.867188 24.585938 36.855469 24.679688 Z M 36.855469 24.679688 "/>
<path style=" stroke:none;fill-rule:nonzero;fill:rgb(86.666667%,70.196078%,45.490196%);fill-opacity:1;" d="M 38.851562 25.988281 C 38.839844 26.082031 38.746094 26.148438 38.636719 26.136719 C 38.527344 26.125 38.449219 26.035156 38.460938 25.941406 C 38.472656 25.847656 38.570312 25.78125 38.675781 25.792969 C 38.785156 25.804688 38.863281 25.890625 38.851562 25.988281 Z M 38.851562 25.988281 "/>
<path style=" stroke:none;fill-rule:nonzero;fill:rgb(86.666667%,70.196078%,45.490196%);fill-opacity:1;" d="M 36.195312 25.511719 C 36.183594 25.605469 36.085938 25.671875 35.980469 25.660156 C 35.871094 25.648438 35.792969 25.5625 35.804688 25.46875 C 35.816406 25.371094 35.910156 25.304688 36.019531 25.316406 C 36.128906 25.328125 36.207031 25.417969 36.195312 25.511719 Z M 36.195312 25.511719 "/>
<path style=" stroke:none;fill-rule:nonzero;fill:rgb(86.666667%,70.196078%,45.490196%);fill-opacity:1;" d="M 40.527344 24.832031 C 40.550781 24.925781 40.480469 25.019531 40.375 25.046875 C 40.269531 25.074219 40.167969 25.023438 40.148438 24.929688 C 40.125 24.839844 40.191406 24.742188 40.296875 24.714844 C 40.402344 24.6875 40.507812 24.738281 40.527344 24.832031 Z M 40.527344 24.832031 "/>
<path style=" stroke:none;fill-rule:nonzero;fill:rgb(100%,100%,100%);fill-opacity:1;" d="M 32.425781 36.113281 L 47.253906 28.015625 L 48.613281 30.476562 L 33.785156 38.578125 Z M 32.425781 36.113281 "/>
<path style="fill:none;stroke-width:2;stroke-linecap:butt;stroke-linejoin:round;stroke:rgb(81.960784%,33.72549%,84.313725%);stroke-opacity:1;stroke-miterlimit:10;" d="M 233.436659 268.835577 L 232.937981 333.667308 " transform="matrix(0.140998,0,0,0.140086,0,0)"/>
<path style=" stroke:none;fill-rule:nonzero;fill:rgb(100%,100%,100%);fill-opacity:1;" d="M 35.085938 47.722656 L 31.070312 47.722656 C 30.121094 47.722656 29.214844 47.347656 28.546875 46.683594 C 27.875 46.015625 27.5 45.113281 27.5 44.175781 L 27.5 32.769531 L 38.65625 32.769531 L 38.65625 44.175781 C 38.65625 46.132812 37.058594 47.722656 35.085938 47.722656 Z M 35.085938 47.722656 "/>
<path style=" stroke:none;fill-rule:nonzero;fill:rgb(95.294118%,84.313725%,62.352941%);fill-opacity:1;" d="M 35.234375 32.59375 L 33.078125 38.546875 L 30.917969 32.59375 Z M 35.234375 32.59375 "/>
<path style="fill-rule:nonzero;fill:rgb(71.764706%,71.764706%,71.764706%);fill-opacity:1;stroke-width:2;stroke-linecap:butt;stroke-linejoin:round;stroke:rgb(71.764706%,71.764706%,71.764706%);stroke-opacity:1;stroke-miterlimit:10;" d="M 246.319171 233.031731 L 265.739904 238.050962 L 236.761178 270.006731 Z M 246.319171 233.031731 " transform="matrix(0.140998,0,0,0.140086,0,0)"/>
<path style=" stroke:none;fill-rule:nonzero;fill:rgb(51.764706%,94.901961%,27.058824%);fill-opacity:1;" d="M 34.273438 34.398438 L 33.078125 38.636719 L 31.878906 34.398438 Z M 34.273438 34.398438 "/>
<path style=" stroke:none;fill-rule:nonzero;fill:rgb(51.764706%,94.901961%,27.058824%);fill-opacity:1;" d="M 24.238281 19.367188 C 24.394531 15.492188 28.320312 12.5 33.007812 12.6875 C 37.691406 12.875 41.363281 16.164062 41.207031 20.039062 C 40.148438 16.941406 36.804688 14.734375 32.929688 14.582031 C 29.054688 14.425781 25.539062 16.359375 24.238281 19.367188 Z M 24.238281 19.367188 "/>
<path style="fill:none;stroke-width:4;stroke-linecap:round;stroke-linejoin:round;stroke:rgb(71.764706%,71.764706%,71.764706%);stroke-opacity:1;stroke-miterlimit:10;" d="M 234.295493 270.982692 L 234.01845 328.843269 " transform="matrix(0.140998,0,0,0.140086,0,0)"/>
<path style="fill-rule:nonzero;fill:rgb(100%,100%,100%);fill-opacity:0.388235;stroke-width:8;stroke-linecap:butt;stroke-linejoin:round;stroke:rgb(40%,40%,40%);stroke-opacity:1;stroke-miterlimit:10;" d="M 292.114423 156.711538 C 293.69357 161.870192 293.167188 165.132692 292.114423 168.032692 C 291.061659 170.960577 290.756911 172.159615 285.825541 174.223077 C 280.866466 176.286538 270.64357 180.664423 262.443089 180.357692 C 254.242608 180.050962 243.68726 172.522115 236.594952 172.382692 C 229.530349 172.243269 225.291587 178.182692 219.944651 179.493269 C 214.625421 180.831731 210.913041 180.218269 204.624159 180.357692 C 198.307572 180.497115 186.810276 182.588462 182.072837 180.357692 C 177.335397 178.126923 175.922476 173.525962 176.199519 167.000962 C 176.448858 160.475962 173.623017 146.673077 183.679688 141.179808 C 193.764063 135.714423 220.110877 134.738462 236.594952 134.069231 C 253.106731 133.4 273.414002 133.372115 282.667248 137.164423 C 291.920493 140.928846 290.535276 151.580769 292.114423 156.711538 Z M 292.114423 156.711538 " transform="matrix(0.140998,0,0,0.140086,0,0)"/>
<path style="fill-rule:nonzero;fill:rgb(93.72549%,93.72549%,93.72549%);fill-opacity:1;stroke-width:4;stroke-linecap:butt;stroke-linejoin:round;stroke:rgb(60%,60%,60%);stroke-opacity:1;stroke-miterlimit:10;" d="M 350.071875 154.285577 L 357.524339 189.726923 L 346.719651 238.497115 L 360.821154 240.421154 L 380.574339 238.525 L 400.659976 232.697115 L 410.965986 225.279808 L 381.073017 185.488462 L 373.011058 149.600962 Z M 350.071875 154.285577 " transform="matrix(0.140998,0,0,0.140086,0,0)"/>
<path style=" stroke:none;fill-rule:nonzero;fill:rgb(16.078431%,84.313725%,14.901961%);fill-opacity:1;" d="M 51.707031 28.050781 L 50.253906 27.84375 L 48.886719 33.410156 L 50.875 33.679688 L 53.660156 33.414062 L 56.492188 32.597656 L 57.945312 31.558594 L 54.339844 26.957031 L 53.5 27.652344 Z M 51.707031 28.050781 "/>
<path style="fill:none;stroke-width:4;stroke-linecap:butt;stroke-linejoin:round;stroke:rgb(40%,40%,40%);stroke-opacity:1;stroke-miterlimit:10;" d="M 350.071875 154.285577 L 357.524339 189.726923 L 346.719651 238.497115 L 360.821154 240.421154 L 380.574339 238.525 L 400.659976 232.697115 L 410.965986 225.279808 L 381.073017 185.488462 L 373.011058 149.600962 Z M 350.071875 154.285577 " transform="matrix(0.140998,0,0,0.140086,0,0)"/>
<path style=" stroke:none;fill-rule:nonzero;fill:rgb(16.078431%,84.313725%,14.901961%);fill-opacity:1;" d="M 50.921875 26.964844 C 50.921875 26.5625 51.261719 26.234375 51.679688 26.234375 C 51.882812 26.234375 52.074219 26.3125 52.214844 26.449219 C 52.359375 26.585938 52.4375 26.773438 52.4375 26.964844 C 52.4375 27.367188 52.097656 27.695312 51.679688 27.695312 C 51.261719 27.695312 50.921875 27.367188 50.921875 26.964844 Z M 50.921875 26.964844 "/>
<path style=" stroke:none;fill-rule:nonzero;fill:rgb(16.078431%,84.313725%,14.901961%);fill-opacity:1;" d="M 51.882812 24.929688 C 51.882812 24.613281 52.148438 24.355469 52.476562 24.355469 C 52.632812 24.355469 52.785156 24.417969 52.898438 24.523438 C 53.007812 24.632812 53.070312 24.777344 53.070312 24.929688 C 53.070312 25.246094 52.804688 25.503906 52.476562 25.503906 C 52.148438 25.503906 51.882812 25.246094 51.882812 24.929688 Z M 51.882812 24.929688 "/>
<path style=" stroke:none;fill-rule:nonzero;fill:rgb(16.078431%,84.313725%,14.901961%);fill-opacity:1;" d="M 50.371094 22.933594 C 50.371094 22.683594 50.578125 22.476562 50.835938 22.476562 C 50.960938 22.476562 51.078125 22.527344 51.164062 22.613281 C 51.253906 22.699219 51.300781 22.8125 51.300781 22.933594 C 51.300781 23.1875 51.09375 23.390625 50.835938 23.390625 C 50.578125 23.390625 50.371094 23.1875 50.371094 22.933594 Z M 50.371094 22.933594 "/>
<path style=" stroke:none;fill-rule:nonzero;fill:rgb(80%,54.901961%,26.666667%);fill-opacity:1;" d="M 17.265625 27.980469 C 17.15625 27.632812 16.339844 26.878906 15.847656 26.425781 C 15.351562 25.976562 14.65625 25.410156 14.296875 25.277344 C 13.933594 25.144531 13.597656 25.335938 13.671875 25.628906 C 13.746094 25.921875 14.269531 26.554688 14.742188 27.039062 C 15.210938 27.519531 16.070312 28.359375 16.488281 28.519531 C 16.910156 28.675781 17.371094 28.332031 17.265625 27.980469 Z M 17.265625 27.980469 "/>
<path style=" stroke:none;fill-rule:nonzero;fill:rgb(80%,54.901961%,26.666667%);fill-opacity:1;" d="M 16.515625 28.09375 C 16.335938 27.753906 15.402344 27.144531 14.839844 26.78125 C 14.277344 26.421875 13.507812 25.984375 13.144531 25.929688 C 12.78125 25.871094 12.519531 26.148438 12.65625 26.441406 C 12.796875 26.734375 13.429688 27.28125 13.976562 27.683594 C 14.523438 28.082031 15.511719 28.773438 15.933594 28.839844 C 16.359375 28.910156 16.699219 28.4375 16.515625 28.09375 Z M 16.515625 28.09375 "/>
<path style=" stroke:none;fill-rule:nonzero;fill:rgb(80%,54.901961%,26.666667%);fill-opacity:1;" d="M 16.265625 28.554688 C 16.019531 28.253906 15.023438 27.8125 14.421875 27.554688 C 13.824219 27.292969 13.015625 26.996094 12.667969 26.996094 C 12.320312 27 12.148438 27.304688 12.34375 27.5625 C 12.539062 27.820312 13.25 28.246094 13.84375 28.546875 C 14.4375 28.84375 15.507812 29.351562 15.910156 29.351562 C 16.3125 29.355469 16.511719 28.851562 16.265625 28.554688 Z M 16.265625 28.554688 "/>
<path style=" stroke:none;fill-rule:nonzero;fill:rgb(95.294118%,84.313725%,62.352941%);fill-opacity:1;" d="M 16.433594 28.648438 C 16.105469 28.425781 15.105469 28.328125 14.503906 28.273438 C 13.902344 28.21875 13.117188 28.199219 12.832031 28.328125 C 12.546875 28.453125 12.527344 28.832031 12.792969 29.03125 C 13.0625 29.226562 13.820312 29.414062 14.433594 29.511719 C 15.042969 29.605469 16.132812 29.75 16.464844 29.605469 C 16.800781 29.460938 16.757812 28.867188 16.433594 28.648438 Z M 16.433594 28.648438 "/>
<path style=" stroke:none;fill-rule:nonzero;fill:rgb(95.294118%,84.313725%,62.352941%);fill-opacity:1;" d="M 16.613281 27.28125 L 15.636719 29.308594 L 18.625 31.121094 L 19.601562 29.09375 Z M 16.613281 27.28125 "/>
<path style=" stroke:none;fill-rule:nonzero;fill:rgb(100%,100%,100%);fill-opacity:1;" d="M 17.917969 27.851562 L 28.992188 33.476562 L 27.703125 35.96875 L 16.632812 30.34375 Z M 17.917969 27.851562 "/>
<path style="fill-rule:nonzero;fill:rgb(93.72549%,93.72549%,93.72549%);fill-opacity:1;stroke-width:4;stroke-linecap:butt;stroke-linejoin:round;stroke:rgb(40%,40%,40%);stroke-opacity:1;stroke-miterlimit:10;" d="M 108.988822 135.909615 C 110.678786 136.718269 113.033654 137.694231 114.779026 138.1125 C 116.524399 138.530769 117.771094 138.614423 119.433353 138.419231 C 121.123317 138.224038 124.115385 135.742308 124.807993 136.913462 C 125.528305 138.084615 124.198498 141.988462 123.644411 145.390385 C 123.06262 148.792308 124.226202 142.880769 121.400361 157.325 C 118.574519 171.769231 110.457151 216.970192 106.661659 232 C 102.866166 247.029808 101.702584 245.440385 98.655108 247.503846 C 95.635337 249.595192 90.510036 247.280769 88.48762 244.492308 C 86.492909 241.703846 85.60637 240.560577 86.576022 230.773077 C 87.573377 220.957692 91.784435 200.072115 94.416346 185.711538 C 97.075962 171.350962 100.677524 153.449038 102.395192 144.665385 C 104.112861 135.909615 103.697296 134.626923 104.777764 133.176923 C 105.885938 131.699038 107.326563 135.073077 108.988822 135.909615 Z M 108.988822 135.909615 " transform="matrix(0.140998,0,0,0.140086,0,0)"/>
<path style=" stroke:none;fill-rule:nonzero;fill:rgb(100%,58.431373%,11.764706%);fill-opacity:1;" d="M 14.269531 24.875 C 14.507812 24.964844 14.847656 25.074219 15.09375 25.128906 C 15.339844 25.179688 15.515625 25.203125 15.746094 25.199219 C 15.976562 25.199219 16.371094 25.007812 16.480469 25.117188 C 16.589844 25.226562 16.445312 25.5625 16.398438 25.859375 C 16.351562 26.15625 16.457031 25.644531 16.199219 26.902344 C 15.945312 28.15625 15.25 32.101562 14.867188 33.40625 C 14.484375 34.707031 14.304688 34.550781 13.90625 34.710938 C 13.503906 34.867188 12.769531 34.609375 12.460938 34.34375 C 12.152344 34.074219 12.019531 33.964844 12.0625 33.101562 C 12.105469 32.242188 12.492188 30.421875 12.71875 29.167969 C 12.949219 27.917969 13.277344 26.355469 13.433594 25.59375 C 13.589844 24.832031 13.515625 24.710938 13.65625 24.59375 C 13.796875 24.472656 14.03125 24.789062 14.269531 24.875 Z M 14.269531 24.875 "/>
<path style="fill:none;stroke-width:4;stroke-linecap:butt;stroke-linejoin:round;stroke:rgb(40%,40%,40%);stroke-opacity:1;stroke-miterlimit:10;" d="M 108.711779 137.499038 C 110.374038 138.307692 112.728906 139.283654 114.474279 139.701923 C 116.219651 140.120192 117.466346 140.203846 119.15631 140.008654 C 120.81857 139.813462 123.810637 137.331731 124.53095 138.502885 C 125.223558 139.674038 123.89375 143.577885 123.339663 146.979808 C 122.757873 150.381731 123.921454 144.470192 121.095613 158.914423 C 118.269772 173.358654 110.152404 218.559615 106.356911 233.589423 C 102.589123 248.619231 101.397837 247.029808 98.378065 249.121154 C 95.330589 251.184615 90.205288 248.870192 88.210577 246.081731 C 86.188161 243.293269 85.301623 242.15 86.271274 232.3625 C 87.26863 222.547115 91.479688 201.661538 94.139303 187.300962 C 96.771214 172.968269 100.372776 155.038462 102.090445 146.282692 C 103.835817 137.499038 103.392548 136.216346 104.500721 134.766346 C 105.58119 133.288462 107.049519 136.6625 108.711779 137.499038 Z M 108.711779 137.499038 " transform="matrix(0.140998,0,0,0.140086,0,0)"/>
<path style=" stroke:none;fill-rule:nonzero;fill:rgb(100%,58.431373%,11.764706%);fill-opacity:1;" d="M 14.738281 23.851562 C 14.816406 23.457031 15.179688 23.191406 15.554688 23.261719 C 15.734375 23.292969 15.894531 23.402344 15.996094 23.558594 C 16.097656 23.71875 16.132812 23.914062 16.097656 24.105469 C 16.023438 24.5 15.660156 24.765625 15.285156 24.695312 C 14.910156 24.625 14.664062 24.25 14.738281 23.851562 Z M 14.738281 23.851562 "/>
<path style=" stroke:none;fill-rule:nonzero;fill:rgb(100%,58.431373%,11.764706%);fill-opacity:1;" d="M 14.519531 22.402344 C 14.566406 22.15625 14.789062 21.988281 15.019531 22.03125 C 15.132812 22.054688 15.230469 22.121094 15.292969 22.21875 C 15.355469 22.316406 15.378906 22.441406 15.355469 22.558594 C 15.308594 22.808594 15.082031 22.972656 14.851562 22.929688 C 14.621094 22.886719 14.472656 22.652344 14.519531 22.402344 Z M 14.519531 22.402344 "/>
<path style=" stroke:none;fill-rule:nonzero;fill:rgb(100%,58.431373%,11.764706%);fill-opacity:1;" d="M 15.582031 21.355469 C 15.640625 21.042969 15.925781 20.835938 16.21875 20.890625 C 16.359375 20.914062 16.484375 21 16.566406 21.125 C 16.644531 21.25 16.675781 21.402344 16.644531 21.550781 C 16.585938 21.863281 16.300781 22.070312 16.007812 22.015625 C 15.714844 21.960938 15.523438 21.667969 15.582031 21.355469 Z M 15.582031 21.355469 "/>
<path style=" stroke:none;fill-rule:nonzero;fill:rgb(100%,58.431373%,11.764706%);fill-opacity:1;" d="M 14.9375 20.1875 C 14.984375 19.9375 15.207031 19.773438 15.4375 19.816406 C 15.550781 19.835938 15.648438 19.902344 15.710938 20 C 15.773438 20.101562 15.796875 20.222656 15.773438 20.34375 C 15.726562 20.589844 15.5 20.757812 15.269531 20.714844 C 15.039062 20.671875 14.890625 20.433594 14.9375 20.1875 Z M 14.9375 20.1875 "/>
<path style=" stroke:none;fill-rule:nonzero;fill:rgb(95.294118%,84.313725%,62.352941%);fill-opacity:1;" d="M 9.175781 27.785156 C 9.449219 28.046875 10.566406 28.3125 11.238281 28.46875 C 11.910156 28.621094 12.820312 28.78125 13.210938 28.714844 C 13.605469 28.652344 13.808594 28.3125 13.59375 28.085938 C 13.378906 27.859375 12.585938 27.554688 11.917969 27.359375 C 11.253906 27.164062 10.054688 26.839844 9.597656 26.914062 C 9.140625 26.984375 8.902344 27.527344 9.175781 27.785156 Z M 9.175781 27.785156 "/>
<path style=" stroke:none;fill-rule:nonzero;fill:rgb(95.294118%,84.313725%,62.352941%);fill-opacity:1;" d="M 9.789062 27.304688 C 10.125 27.523438 11.269531 27.597656 11.957031 27.640625 C 12.644531 27.679688 13.558594 27.679688 13.914062 27.546875 C 14.269531 27.414062 14.363281 27.03125 14.089844 26.835938 C 13.816406 26.644531 12.96875 26.472656 12.277344 26.390625 C 11.582031 26.308594 10.34375 26.1875 9.929688 26.339844 C 9.515625 26.492188 9.449219 27.089844 9.789062 27.304688 Z M 9.789062 27.304688 "/>
<path style=" stroke:none;fill-rule:nonzero;fill:rgb(95.294118%,84.313725%,62.352941%);fill-opacity:1;" d="M 9.78125 26.765625 C 10.15625 26.910156 11.269531 26.804688 11.941406 26.734375 C 12.609375 26.664062 13.488281 26.523438 13.796875 26.34375 C 14.105469 26.167969 14.105469 25.804688 13.796875 25.671875 C 13.492188 25.539062 12.640625 25.511719 11.953125 25.546875 C 11.269531 25.578125 10.054688 25.664062 9.691406 25.867188 C 9.328125 26.070312 9.40625 26.621094 9.78125 26.765625 Z M 9.78125 26.765625 "/>
<path style=" stroke:none;fill-rule:nonzero;fill:rgb(80%,54.901961%,26.666667%);fill-opacity:1;" d="M 9.582031 26.765625 C 9.988281 26.800781 10.9375 26.382812 11.5 26.125 C 12.066406 25.871094 12.78125 25.488281 12.972656 25.230469 C 13.164062 24.972656 12.988281 24.621094 12.648438 24.578125 C 12.308594 24.535156 11.53125 24.753906 10.9375 24.976562 C 10.339844 25.199219 9.289062 25.625 9.066406 25.921875 C 8.839844 26.21875 9.175781 26.734375 9.582031 26.765625 Z M 9.582031 26.765625 "/>
<path style=" stroke:none;fill-rule:nonzero;fill:rgb(80%,54.901961%,26.666667%);fill-opacity:1;" d="M 10.109375 27.996094 L 9.960938 25.769531 L 8.59375 25.722656 L 8.742188 27.953125 Z M 10.109375 27.996094 "/>
<path style=" stroke:none;fill-rule:nonzero;fill:rgb(80%,54.901961%,26.666667%);fill-opacity:1;" d="M 9.042969 26.6875 C 8.953125 26.992188 9.433594 27.8125 9.730469 28.304688 C 10.027344 28.796875 10.484375 29.433594 10.824219 29.632812 C 11.160156 29.835938 11.667969 29.773438 11.761719 29.519531 C 11.855469 29.265625 11.636719 28.621094 11.390625 28.113281 C 11.140625 27.601562 10.664062 26.703125 10.269531 26.464844 C 9.878906 26.226562 9.132812 26.378906 9.042969 26.6875 Z M 9.042969 26.6875 "/>
<path style=" stroke:none;fill-rule:nonzero;fill:rgb(77.254902%,14.901961%,86.666667%);fill-opacity:1;" d="M 7.066406 29.6875 L 8.078125 23.738281 L 13.246094 24.605469 L 12.234375 30.554688 Z M 7.066406 29.6875 "/>
<path style=" stroke:none;fill-rule:nonzero;fill:rgb(95.294118%,84.313725%,62.352941%);fill-opacity:1;" d="M 17.171875 29.078125 C 17.332031 28.835938 17.199219 27.921875 17.113281 27.375 C 17.023438 26.824219 16.855469 26.085938 16.648438 25.78125 C 16.445312 25.472656 16.03125 25.339844 15.882812 25.53125 C 15.734375 25.726562 15.710938 26.382812 15.757812 26.929688 C 15.800781 27.480469 15.910156 28.460938 16.144531 28.820312 C 16.382812 29.179688 17.011719 29.320312 17.171875 29.078125 Z M 17.171875 29.078125 "/>
<path style="fill-rule:nonzero;fill:rgb(71.764706%,71.764706%,71.764706%);fill-opacity:1;stroke-width:2;stroke-linecap:butt;stroke-linejoin:round;stroke:rgb(71.764706%,71.764706%,71.764706%);stroke-opacity:1;stroke-miterlimit:10;" d="M 223.019832 233.338462 L 203.73762 237.911538 L 231.746695 270.034615 Z M 223.019832 233.338462 " transform="matrix(0.140998,0,0,0.140086,0,0)"/>
</g>
</svg>
