<?xml version="1.0" encoding="UTF-8"?>
<svg xmlns="http://www.w3.org/2000/svg" xmlns:xlink="http://www.w3.org/1999/xlink" width="65px" height="65px" viewBox="0 0 65 65" version="1.1">
<g id="surface1">
<path style=" stroke:none;fill-rule:nonzero;fill:rgb(91.372549%,11.764706%,38.823529%);fill-opacity:1;" d="M 28.003906 0.0625 C 27.191406 0.179688 26.546875 0.316406 26.15625 0.453125 C 24.734375 0.949219 23.695312 1.878906 23.265625 3.027344 C 23.074219 3.539062 23.0625 4.429688 23.238281 4.925781 C 24.089844 7.328125 27.417969 8.578125 30.453125 7.632812 C 31.5625 7.289062 32.535156 6.589844 33.070312 5.769531 C 33.5 5.117188 33.636719 4.691406 33.636719 4.011719 C 33.636719 2.015625 31.710938 0.390625 28.988281 0.105469 C 28.742188 0.0820312 28.5 0.0507812 28.445312 0.0351562 C 28.390625 0.0234375 28.191406 0.0351562 28.003906 0.0625 Z M 28.003906 0.0625 "/>
<path style=" stroke:none;fill-rule:nonzero;fill:rgb(91.372549%,11.764706%,38.823529%);fill-opacity:1;" d="M 16.105469 4.421875 C 15.847656 4.675781 15.652344 4.890625 15.664062 4.894531 C 17.203125 5.734375 18.964844 6.996094 19.429688 7.585938 C 19.808594 8.074219 20.246094 9.246094 20.449219 10.34375 C 21.019531 13.382812 20.324219 18.242188 18.863281 21.429688 C 17.371094 24.675781 15.691406 27.097656 10.410156 33.59375 C 6.851562 37.96875 5.722656 39.453125 4.253906 41.636719 C 1.933594 45.09375 0.660156 47.933594 0.238281 50.578125 C 0.183594 50.953125 0.101562 51.445312 0.0664062 51.671875 C -0.0351562 52.28125 -0.0117188 52.75 0.144531 53.570312 C 0.441406 55.125 0.882812 56.214844 1.78125 57.554688 C 2.871094 59.191406 4.164062 60.25 5.851562 60.90625 C 8.847656 62.070312 13.5 62.726562 20.855469 63.03125 C 23.074219 63.117188 39.816406 63.121094 41.578125 63.03125 C 48.089844 62.699219 51.796875 62.21875 54.914062 61.292969 C 55.472656 61.128906 56.507812 60.710938 56.941406 60.46875 C 58.589844 59.566406 59.992188 57.976562 60.902344 55.976562 C 61.480469 54.71875 61.71875 53.6875 61.71875 52.441406 C 61.71875 48.761719 59.890625 44.640625 55.855469 39.226562 C 54.800781 37.820312 53.855469 36.617188 51.273438 33.4375 C 47.578125 28.878906 46.523438 27.492188 45.089844 25.273438 C 42.925781 21.957031 42.035156 19.734375 41.449219 16.199219 C 41.167969 14.511719 41.082031 12.429688 41.238281 11.121094 C 41.402344 9.773438 41.78125 8.527344 42.257812 7.796875 C 42.660156 7.171875 43.832031 6.257812 45.4375 5.316406 C 45.777344 5.113281 46.0625 4.921875 46.0625 4.878906 C 46.070312 4.769531 45.230469 3.960938 45.109375 3.960938 C 44.859375 3.960938 42.550781 5.453125 41.734375 6.148438 C 40.816406 6.929688 40.496094 7.4375 40.046875 8.785156 C 39.589844 10.144531 39.433594 11.421875 39.488281 13.355469 C 39.535156 15.09375 39.734375 16.507812 40.183594 18.417969 C 40.746094 20.789062 41.625 22.761719 43.328125 25.46875 C 44.675781 27.605469 46.101562 29.492188 49.894531 34.171875 C 51.015625 35.546875 51.914062 36.710938 51.894531 36.746094 C 51.859375 36.804688 48.566406 36.816406 30.867188 36.816406 C 15.945312 36.816406 9.859375 36.800781 9.832031 36.761719 C 9.804688 36.730469 10.296875 36.074219 10.929688 35.304688 C 15.203125 30.03125 16.214844 28.726562 17.582031 26.710938 C 19.800781 23.449219 20.917969 21.121094 21.566406 18.382812 C 22 16.535156 22.183594 15.1875 22.230469 13.382812 C 22.292969 11.195312 22.09375 9.761719 21.542969 8.339844 C 21.144531 7.300781 20.796875 6.824219 19.929688 6.09375 C 19.238281 5.507812 16.847656 3.960938 16.636719 3.960938 C 16.597656 3.960938 16.359375 4.167969 16.105469 4.421875 Z M 16.105469 4.421875 "/>
<path style=" stroke:none;fill-rule:nonzero;fill:rgb(91.372549%,11.764706%,38.823529%);fill-opacity:1;" d="M 32.59375 10.59375 C 30.464844 11.007812 29.226562 12.726562 29.960938 14.234375 C 30.328125 14.992188 30.949219 15.507812 31.859375 15.839844 C 32.765625 16.164062 33.535156 16.226562 34.460938 16.046875 C 35.1875 15.910156 35.609375 15.726562 36.175781 15.3125 C 36.949219 14.742188 37.296875 14.121094 37.296875 13.292969 C 37.296875 11.746094 35.597656 10.5 33.507812 10.515625 C 33.207031 10.515625 32.800781 10.550781 32.59375 10.59375 Z M 32.59375 10.59375 "/>
<path style=" stroke:none;fill-rule:nonzero;fill:rgb(91.372549%,11.764706%,38.823529%);fill-opacity:1;" d="M 28.34375 19.65625 C 27.316406 19.769531 26.21875 20.378906 25.769531 21.085938 C 25.246094 21.90625 25.253906 22.625 25.789062 23.441406 C 26.640625 24.742188 28.742188 25.253906 30.535156 24.597656 C 31.628906 24.203125 32.453125 23.195312 32.460938 22.257812 C 32.460938 21.308594 31.71875 20.390625 30.585938 19.945312 C 29.847656 19.664062 29.136719 19.566406 28.34375 19.65625 Z M 28.34375 19.65625 "/>
<path style=" stroke:none;fill-rule:nonzero;fill:rgb(91.372549%,11.764706%,38.823529%);fill-opacity:1;" d="M 33.765625 28.589844 C 32.929688 28.722656 32.132812 29.183594 31.757812 29.753906 C 31.5625 30.0625 31.539062 30.125 31.539062 30.621094 C 31.539062 31.140625 31.546875 31.175781 31.792969 31.546875 C 32.097656 32.007812 32.492188 32.292969 33.125 32.515625 C 33.546875 32.664062 33.636719 32.679688 34.261719 32.679688 C 35.140625 32.671875 35.5625 32.554688 36.140625 32.15625 C 37.234375 31.398438 37.378906 30.210938 36.46875 29.351562 C 35.847656 28.765625 34.703125 28.441406 33.765625 28.589844 Z M 33.765625 28.589844 "/>
</g>
</svg>
