<?xml version="1.0" encoding="UTF-8"?>
<svg xmlns="http://www.w3.org/2000/svg" xmlns:xlink="http://www.w3.org/1999/xlink" width="65px" height="65px" viewBox="0 0 65 65" version="1.1">
<g id="surface1">
<path style=" stroke:none;fill-rule:nonzero;fill:rgb(84.313725%,19.607843%,51.372549%);fill-opacity:1;" d="M 1.65625 34.675781 C 1.65625 30.601562 5.238281 27.296875 9.65625 27.296875 C 11.777344 27.300781 13.8125 28.078125 15.3125 29.460938 C 16.816406 30.84375 17.65625 32.722656 17.65625 34.679688 C 17.65625 38.753906 14.074219 42.058594 9.65625 42.058594 C 5.238281 42.054688 1.65625 38.75 1.65625 34.675781 Z M 1.65625 34.675781 "/>
<path style=" stroke:none;fill-rule:nonzero;fill:rgb(84.313725%,19.607843%,51.372549%);fill-opacity:1;" d="M 47.160156 35.945312 C 47.160156 31.871094 50.742188 28.570312 55.160156 28.570312 C 57.28125 28.570312 59.316406 29.347656 60.816406 30.734375 C 62.316406 32.117188 63.160156 33.996094 63.160156 35.953125 C 63.160156 40.027344 59.578125 43.328125 55.160156 43.328125 C 50.742188 43.328125 47.160156 40.023438 47.160156 35.945312 Z M 47.160156 35.945312 "/>
<path style="fill:none;stroke-width:24;stroke-linecap:round;stroke-linejoin:round;stroke:rgb(26.27451%,26.27451%,26.27451%);stroke-opacity:1;stroke-miterlimit:10;" d="M 212.546034 196.428245 L 273.180589 209.08125 " transform="matrix(0.186246,0,0,0.171958,0,0)"/>
<path style="fill:none;stroke-width:24;stroke-linecap:round;stroke-linejoin:round;stroke:rgb(26.27451%,26.27451%,26.27451%);stroke-opacity:1;stroke-miterlimit:10;" d="M 73.554267 200.13101 L 113.697656 196.723558 " transform="matrix(0.186246,0,0,0.171958,0,0)"/>
<path style="fill:none;stroke-width:24;stroke-linecap:round;stroke-linejoin:round;stroke:rgb(26.27451%,26.27451%,26.27451%);stroke-opacity:1;stroke-miterlimit:10;" d="M 178.589844 92.432813 L 178.464002 166.101923 " transform="matrix(0.186246,0,0,0.171958,0,0)"/>
<path style=" stroke:none;fill-rule:nonzero;fill:rgb(84.313725%,19.607843%,51.372549%);fill-opacity:1;" d="M 21.175781 33.828125 C 21.175781 28.027344 26.207031 23.324219 32.40625 23.324219 C 35.386719 23.328125 38.242188 24.433594 40.347656 26.40625 C 42.457031 28.375 43.640625 31.046875 43.640625 33.835938 C 43.640625 39.636719 38.609375 44.339844 32.40625 44.335938 C 26.207031 44.335938 21.175781 39.628906 21.175781 33.828125 Z M 21.175781 33.828125 "/>
<path style=" stroke:none;fill-rule:nonzero;fill:rgb(84.313725%,19.607843%,51.372549%);fill-opacity:1;" d="M 25.261719 8.511719 C 25.261719 4.4375 28.84375 1.132812 33.261719 1.136719 C 35.382812 1.136719 37.417969 1.914062 38.917969 3.296875 C 40.421875 4.683594 41.261719 6.558594 41.261719 8.515625 C 41.261719 12.59375 37.679688 15.894531 33.261719 15.894531 C 28.84375 15.894531 25.261719 12.589844 25.261719 8.511719 Z M 25.261719 8.511719 "/>
<path style="fill:none;stroke-width:24;stroke-linecap:round;stroke-linejoin:round;stroke:rgb(26.27451%,26.27451%,26.27451%);stroke-opacity:1;stroke-miterlimit:10;" d="M 193.606911 236.795192 L 228.947356 302.445433 " transform="matrix(0.186246,0,0,0.171958,0,0)"/>
<path style=" stroke:none;fill-rule:nonzero;fill:rgb(84.313725%,19.607843%,51.372549%);fill-opacity:1;" d="M 35.253906 55.320312 C 35.253906 50.683594 39.332031 46.925781 44.359375 46.925781 C 46.773438 46.925781 49.089844 47.8125 50.796875 49.386719 C 52.507812 50.960938 53.464844 53.097656 53.464844 55.324219 C 53.464844 59.964844 49.390625 63.722656 44.359375 63.722656 C 39.332031 63.71875 35.253906 59.960938 35.253906 55.320312 Z M 35.253906 55.320312 "/>
</g>
</svg>
